<mxfile host="app.diagrams.net" agent="Mozilla/5.0 (Windows NT 10.0; Win64; x64) AppleWebKit/537.36 (KHTML, like Gecko) Chrome/133.0.0.0 Safari/537.36" version="26.1.0">
  <diagram id="C5RBs43oDa-KdzZeNtuy" name="Page-1">
    <mxGraphModel dx="2514" dy="868" grid="1" gridSize="10" guides="1" tooltips="1" connect="1" arrows="1" fold="1" page="1" pageScale="1" pageWidth="827" pageHeight="1169" math="0" shadow="0">
      <root>
        <mxCell id="WIyWlLk6GJQsqaUBKTNV-0" />
        <mxCell id="WIyWlLk6GJQsqaUBKTNV-1" parent="WIyWlLk6GJQsqaUBKTNV-0" />
        <mxCell id="PExKw9lyQx4Q-NcElafL-2" value="" style="edgeStyle=orthogonalEdgeStyle;rounded=0;orthogonalLoop=1;jettySize=auto;html=1;" edge="1" parent="WIyWlLk6GJQsqaUBKTNV-1" source="PExKw9lyQx4Q-NcElafL-0" target="PExKw9lyQx4Q-NcElafL-1">
          <mxGeometry relative="1" as="geometry" />
        </mxCell>
        <mxCell id="PExKw9lyQx4Q-NcElafL-0" value="START" style="ellipse;whiteSpace=wrap;html=1;" vertex="1" parent="WIyWlLk6GJQsqaUBKTNV-1">
          <mxGeometry x="310" y="40" width="120" height="80" as="geometry" />
        </mxCell>
        <mxCell id="PExKw9lyQx4Q-NcElafL-4" value="" style="edgeStyle=orthogonalEdgeStyle;rounded=0;orthogonalLoop=1;jettySize=auto;html=1;" edge="1" parent="WIyWlLk6GJQsqaUBKTNV-1" source="PExKw9lyQx4Q-NcElafL-1" target="PExKw9lyQx4Q-NcElafL-3">
          <mxGeometry relative="1" as="geometry" />
        </mxCell>
        <mxCell id="PExKw9lyQx4Q-NcElafL-1" value="Go to Custom Reports Tab" style="whiteSpace=wrap;html=1;" vertex="1" parent="WIyWlLk6GJQsqaUBKTNV-1">
          <mxGeometry x="310" y="210" width="120" height="60" as="geometry" />
        </mxCell>
        <mxCell id="PExKw9lyQx4Q-NcElafL-6" value="" style="edgeStyle=orthogonalEdgeStyle;rounded=0;orthogonalLoop=1;jettySize=auto;html=1;" edge="1" parent="WIyWlLk6GJQsqaUBKTNV-1" source="PExKw9lyQx4Q-NcElafL-3" target="PExKw9lyQx4Q-NcElafL-5">
          <mxGeometry relative="1" as="geometry" />
        </mxCell>
        <mxCell id="PExKw9lyQx4Q-NcElafL-3" value="click on action Menu" style="whiteSpace=wrap;html=1;" vertex="1" parent="WIyWlLk6GJQsqaUBKTNV-1">
          <mxGeometry x="310" y="350" width="120" height="60" as="geometry" />
        </mxCell>
        <mxCell id="PExKw9lyQx4Q-NcElafL-15" value="" style="edgeStyle=orthogonalEdgeStyle;rounded=0;orthogonalLoop=1;jettySize=auto;html=1;" edge="1" parent="WIyWlLk6GJQsqaUBKTNV-1" source="PExKw9lyQx4Q-NcElafL-5" target="PExKw9lyQx4Q-NcElafL-14">
          <mxGeometry relative="1" as="geometry" />
        </mxCell>
        <mxCell id="PExKw9lyQx4Q-NcElafL-17" value="" style="edgeStyle=orthogonalEdgeStyle;rounded=0;orthogonalLoop=1;jettySize=auto;html=1;" edge="1" parent="WIyWlLk6GJQsqaUBKTNV-1" source="PExKw9lyQx4Q-NcElafL-5" target="PExKw9lyQx4Q-NcElafL-16">
          <mxGeometry relative="1" as="geometry" />
        </mxCell>
        <mxCell id="PExKw9lyQx4Q-NcElafL-5" value="Select Generate" style="whiteSpace=wrap;html=1;" vertex="1" parent="WIyWlLk6GJQsqaUBKTNV-1">
          <mxGeometry x="310" y="490" width="120" height="60" as="geometry" />
        </mxCell>
        <mxCell id="PExKw9lyQx4Q-NcElafL-7" value="v1/custom-reports" style="swimlane;whiteSpace=wrap;html=1;" vertex="1" parent="WIyWlLk6GJQsqaUBKTNV-1">
          <mxGeometry x="110" y="200" width="190" height="80" as="geometry" />
        </mxCell>
        <mxCell id="PExKw9lyQx4Q-NcElafL-9" value="&lt;span style=&quot;color: rgb(0, 0, 0); font-family: Helvetica; font-size: 12px; font-style: normal; font-variant-ligatures: normal; font-variant-caps: normal; font-weight: 400; letter-spacing: normal; orphans: 2; text-align: center; text-indent: 0px; text-transform: none; widows: 2; word-spacing: 0px; -webkit-text-stroke-width: 0px; white-space: nowrap; background-color: rgb(251, 251, 251); text-decoration-thickness: initial; text-decoration-style: initial; text-decoration-color: initial; float: none; display: inline !important;&quot;&gt;Data to render on&amp;nbsp;&lt;/span&gt;&lt;div&gt;&lt;span style=&quot;color: rgb(0, 0, 0); font-family: Helvetica; font-size: 12px; font-style: normal; font-variant-ligatures: normal; font-variant-caps: normal; font-weight: 400; letter-spacing: normal; orphans: 2; text-align: center; text-indent: 0px; text-transform: none; widows: 2; word-spacing: 0px; -webkit-text-stroke-width: 0px; white-space: nowrap; background-color: rgb(251, 251, 251); text-decoration-thickness: initial; text-decoration-style: initial; text-decoration-color: initial; float: none; display: inline !important;&quot;&gt;custom reports tab&lt;/span&gt;&lt;/div&gt;" style="text;whiteSpace=wrap;html=1;" vertex="1" parent="PExKw9lyQx4Q-NcElafL-7">
          <mxGeometry x="30" y="30" width="120" height="40" as="geometry" />
        </mxCell>
        <mxCell id="PExKw9lyQx4Q-NcElafL-14" value="Display In progress Popup for 30 sec" style="whiteSpace=wrap;html=1;" vertex="1" parent="WIyWlLk6GJQsqaUBKTNV-1">
          <mxGeometry x="510" y="490" width="120" height="60" as="geometry" />
        </mxCell>
        <mxCell id="PExKw9lyQx4Q-NcElafL-22" value="" style="edgeStyle=orthogonalEdgeStyle;rounded=0;orthogonalLoop=1;jettySize=auto;html=1;" edge="1" parent="WIyWlLk6GJQsqaUBKTNV-1" source="PExKw9lyQx4Q-NcElafL-16" target="PExKw9lyQx4Q-NcElafL-21">
          <mxGeometry relative="1" as="geometry" />
        </mxCell>
        <mxCell id="PExKw9lyQx4Q-NcElafL-16" value="call report data" style="whiteSpace=wrap;html=1;fillColor=#ffe6cc;strokeColor=#d79b00;" vertex="1" parent="WIyWlLk6GJQsqaUBKTNV-1">
          <mxGeometry x="310" y="630" width="120" height="60" as="geometry" />
        </mxCell>
        <mxCell id="PExKw9lyQx4Q-NcElafL-18" value="&lt;a style=&quot;box-sizing: border-box; background-color: rgba(73, 204, 144, 0.1); display: inline; color: rgb(59, 65, 81); cursor: pointer; text-decoration-line: inherit; font-family: monospace; font-size: 16px; text-align: start;&quot; class=&quot;nostyle&quot;&gt;&lt;span style=&quot;box-sizing: border-box;&quot;&gt;POST:/v1&lt;wbr style=&quot;box-sizing: border-box;&quot;&gt;/commission&lt;wbr style=&quot;box-sizing: border-box;&quot;&gt;/reportdata&lt;/span&gt;&lt;/a&gt;" style="swimlane;whiteSpace=wrap;html=1;" vertex="1" parent="WIyWlLk6GJQsqaUBKTNV-1">
          <mxGeometry x="-20" y="550" width="320" height="175" as="geometry" />
        </mxCell>
        <mxCell id="PExKw9lyQx4Q-NcElafL-31" value="&lt;pre style=&quot;box-sizing: border-box; max-height: 400px; min-height: 6em; overflow: auto; background: rgb(51, 51, 51); border-radius: 4px; hyphens: auto; margin-top: 0px; margin-bottom: 0px; padding: 0.5em; text-wrap-mode: wrap; word-break: break-word; overflow-wrap: break-word; color: white; font-weight: 600; text-align: start;&quot; class=&quot;body-param__example microlight&quot;&gt;&lt;code style=&quot;box-sizing: border-box; font-family: Consolas, monaco, monospace; font-size: 1em; word-break: break-all; text-wrap-mode: nowrap;&quot; class=&quot;language-json&quot;&gt;&lt;span style=&quot;box-sizing: border-box;&quot; class=&quot;hljs-attr&quot;&gt;&quot;attuid&quot;&lt;/span&gt;&lt;span style=&quot;box-sizing: border-box;&quot;&gt;: &lt;/span&gt;&lt;span style=&quot;box-sizing: border-box; color: rgb(162, 252, 162);&quot;&gt;&quot;ab1984&quot;&lt;/span&gt;&lt;span style=&quot;box-sizing: border-box;&quot;&gt;,&lt;br/&gt;&lt;/span&gt;&lt;span style=&quot;box-sizing: border-box;&quot;&gt;  &lt;/span&gt;&lt;span style=&quot;box-sizing: border-box;&quot; class=&quot;hljs-attr&quot;&gt;&quot;cfasId&quot;&lt;/span&gt;&lt;span style=&quot;box-sizing: border-box;&quot;&gt;: &lt;/span&gt;&lt;span style=&quot;box-sizing: border-box; color: rgb(162, 252, 162);&quot;&gt;&quot;123456789&quot;&lt;/span&gt;&lt;span style=&quot;box-sizing: border-box;&quot;&gt;,&lt;br/&gt;&lt;/span&gt;&lt;span style=&quot;box-sizing: border-box;&quot;&gt;  &lt;/span&gt;&lt;span style=&quot;box-sizing: border-box;&quot; class=&quot;hljs-attr&quot;&gt;&quot;brand&quot;&lt;/span&gt;&lt;span style=&quot;box-sizing: border-box;&quot;&gt;: &lt;/span&gt;&lt;span style=&quot;box-sizing: border-box; color: rgb(162, 252, 162);&quot;&gt;&quot;CRICKET&quot;&lt;/span&gt;&lt;span style=&quot;box-sizing: border-box;&quot;&gt;,&lt;br/&gt;&lt;/span&gt;&lt;span style=&quot;box-sizing: border-box;&quot;&gt;  &lt;/span&gt;&lt;span style=&quot;box-sizing: border-box;&quot; class=&quot;hljs-attr&quot;&gt;&quot;payeeType&quot;&lt;/span&gt;&lt;span style=&quot;box-sizing: border-box;&quot;&gt;: &lt;/span&gt;&lt;span style=&quot;box-sizing: border-box; color: rgb(162, 252, 162);&quot;&gt;&quot;AR&quot;&lt;/span&gt;&lt;span style=&quot;box-sizing: border-box;&quot;&gt;,&lt;br/&gt;&lt;/span&gt;&lt;span style=&quot;box-sizing: border-box;&quot;&gt;  &lt;/span&gt;&lt;span style=&quot;box-sizing: border-box;&quot; class=&quot;hljs-attr&quot;&gt;&quot;reportName&quot;&lt;/span&gt;&lt;span style=&quot;box-sizing: border-box;&quot;&gt;: &lt;/span&gt;&lt;span style=&quot;box-sizing: border-box; color: rgb(162, 252, 162);&quot;&gt;&quot;Activation_Report&quot;&lt;/span&gt;&lt;span style=&quot;box-sizing: border-box;&quot;&gt;,&lt;br/&gt;&lt;/span&gt;&lt;span style=&quot;box-sizing: border-box;&quot;&gt;  &lt;/span&gt;&lt;span style=&quot;box-sizing: border-box;&quot; class=&quot;hljs-attr&quot;&gt;&quot;reportType&quot;&lt;/span&gt;&lt;span style=&quot;box-sizing: border-box;&quot;&gt;: &lt;/span&gt;&lt;span style=&quot;box-sizing: border-box; color: rgb(162, 252, 162);&quot;&gt;&quot;PAYOUT_SUMMARY&quot;&lt;/span&gt;&lt;span style=&quot;box-sizing: border-box;&quot;&gt;,&lt;br/&gt;&lt;/span&gt;&lt;span style=&quot;box-sizing: border-box;&quot;&gt;  &lt;/span&gt;&lt;span style=&quot;box-sizing: border-box;&quot; class=&quot;hljs-attr&quot;&gt;&quot;requestType&quot;&lt;/span&gt;&lt;span style=&quot;box-sizing: border-box;&quot;&gt;: &lt;/span&gt;&lt;span style=&quot;box-sizing: border-box; color: rgb(162, 252, 162);&quot;&gt;&quot;HQ&quot;&lt;/span&gt;&lt;span style=&quot;box-sizing: border-box;&quot;&gt;,&lt;br/&gt;&lt;/span&gt;&lt;span style=&quot;box-sizing: border-box;&quot;&gt;  &lt;/span&gt;&lt;span style=&quot;box-sizing: border-box;&quot; class=&quot;hljs-attr&quot;&gt;&quot;operationMode&quot;&lt;/span&gt;&lt;span style=&quot;box-sizing: border-box;&quot;&gt;: &lt;/span&gt;&lt;span style=&quot;box-sizing: border-box; color: rgb(162, 252, 162);&quot;&gt;&quot;REPORT&quot;&lt;/span&gt;&lt;span style=&quot;box-sizing: border-box;&quot;&gt;,&lt;br/&gt;&lt;/span&gt;&lt;span style=&quot;box-sizing: border-box;&quot;&gt;  &lt;/span&gt;&lt;span style=&quot;box-sizing: border-box;&quot; class=&quot;hljs-attr&quot;&gt;&quot;SerachCriteriaList&quot;&lt;/span&gt;&lt;span style=&quot;box-sizing: border-box;&quot;&gt;: {&lt;/span&gt;&lt;/code&gt;&lt;/pre&gt;" style="text;html=1;align=center;verticalAlign=middle;resizable=0;points=[];autosize=1;strokeColor=none;fillColor=none;" vertex="1" parent="PExKw9lyQx4Q-NcElafL-18">
          <mxGeometry x="32.5" y="15" width="270" height="160" as="geometry" />
        </mxCell>
        <mxCell id="PExKw9lyQx4Q-NcElafL-24" value="" style="edgeStyle=orthogonalEdgeStyle;rounded=0;orthogonalLoop=1;jettySize=auto;html=1;" edge="1" parent="WIyWlLk6GJQsqaUBKTNV-1" source="PExKw9lyQx4Q-NcElafL-21" target="PExKw9lyQx4Q-NcElafL-23">
          <mxGeometry relative="1" as="geometry" />
        </mxCell>
        <mxCell id="PExKw9lyQx4Q-NcElafL-30" value="" style="edgeStyle=orthogonalEdgeStyle;rounded=0;orthogonalLoop=1;jettySize=auto;html=1;" edge="1" parent="WIyWlLk6GJQsqaUBKTNV-1" source="PExKw9lyQx4Q-NcElafL-21" target="PExKw9lyQx4Q-NcElafL-29">
          <mxGeometry relative="1" as="geometry" />
        </mxCell>
        <mxCell id="PExKw9lyQx4Q-NcElafL-21" value="api call returns" style="rhombus;whiteSpace=wrap;html=1;" vertex="1" parent="WIyWlLk6GJQsqaUBKTNV-1">
          <mxGeometry x="330" y="760" width="80" height="80" as="geometry" />
        </mxCell>
        <mxCell id="PExKw9lyQx4Q-NcElafL-23" value="display error notification" style="whiteSpace=wrap;html=1;" vertex="1" parent="WIyWlLk6GJQsqaUBKTNV-1">
          <mxGeometry x="150" y="770" width="120" height="60" as="geometry" />
        </mxCell>
        <mxCell id="PExKw9lyQx4Q-NcElafL-25" value="faied" style="text;html=1;align=center;verticalAlign=middle;resizable=0;points=[];autosize=1;strokeColor=none;fillColor=none;" vertex="1" parent="WIyWlLk6GJQsqaUBKTNV-1">
          <mxGeometry x="275" y="768" width="50" height="30" as="geometry" />
        </mxCell>
        <mxCell id="PExKw9lyQx4Q-NcElafL-28" value="success" style="text;html=1;align=center;verticalAlign=middle;resizable=0;points=[];autosize=1;strokeColor=none;fillColor=none;" vertex="1" parent="WIyWlLk6GJQsqaUBKTNV-1">
          <mxGeometry x="365" y="858" width="70" height="30" as="geometry" />
        </mxCell>
        <mxCell id="PExKw9lyQx4Q-NcElafL-35" value="" style="edgeStyle=orthogonalEdgeStyle;rounded=0;orthogonalLoop=1;jettySize=auto;html=1;" edge="1" parent="WIyWlLk6GJQsqaUBKTNV-1" source="PExKw9lyQx4Q-NcElafL-29" target="PExKw9lyQx4Q-NcElafL-34">
          <mxGeometry relative="1" as="geometry" />
        </mxCell>
        <mxCell id="PExKw9lyQx4Q-NcElafL-40" value="" style="edgeStyle=orthogonalEdgeStyle;rounded=0;orthogonalLoop=1;jettySize=auto;html=1;" edge="1" parent="WIyWlLk6GJQsqaUBKTNV-1" source="PExKw9lyQx4Q-NcElafL-29" target="PExKw9lyQx4Q-NcElafL-39">
          <mxGeometry relative="1" as="geometry" />
        </mxCell>
        <mxCell id="PExKw9lyQx4Q-NcElafL-43" value="" style="edgeStyle=orthogonalEdgeStyle;rounded=0;orthogonalLoop=1;jettySize=auto;html=1;" edge="1" parent="WIyWlLk6GJQsqaUBKTNV-1" source="PExKw9lyQx4Q-NcElafL-29" target="PExKw9lyQx4Q-NcElafL-42">
          <mxGeometry relative="1" as="geometry" />
        </mxCell>
        <mxCell id="PExKw9lyQx4Q-NcElafL-29" value="compare&amp;nbsp;&lt;div&gt;count&amp;nbsp;&lt;div&gt;with&lt;div&gt;X &amp;amp; Y&lt;/div&gt;&lt;/div&gt;&lt;/div&gt;" style="rhombus;whiteSpace=wrap;html=1;" vertex="1" parent="WIyWlLk6GJQsqaUBKTNV-1">
          <mxGeometry x="310" y="888" width="120" height="90" as="geometry" />
        </mxCell>
        <mxCell id="PExKw9lyQx4Q-NcElafL-47" value="" style="edgeStyle=orthogonalEdgeStyle;rounded=0;orthogonalLoop=1;jettySize=auto;html=1;" edge="1" parent="WIyWlLk6GJQsqaUBKTNV-1" source="PExKw9lyQx4Q-NcElafL-34" target="PExKw9lyQx4Q-NcElafL-46">
          <mxGeometry relative="1" as="geometry" />
        </mxCell>
        <mxCell id="PExKw9lyQx4Q-NcElafL-34" value="Call async API" style="whiteSpace=wrap;html=1;fillColor=#ffe6cc;strokeColor=#d79b00;" vertex="1" parent="WIyWlLk6GJQsqaUBKTNV-1">
          <mxGeometry x="310" y="1073" width="120" height="60" as="geometry" />
        </mxCell>
        <mxCell id="PExKw9lyQx4Q-NcElafL-36" value="if count &amp;lt; Y" style="text;html=1;align=center;verticalAlign=middle;resizable=0;points=[];autosize=1;strokeColor=none;fillColor=none;" vertex="1" parent="WIyWlLk6GJQsqaUBKTNV-1">
          <mxGeometry x="374" y="1010" width="80" height="30" as="geometry" />
        </mxCell>
        <mxCell id="PExKw9lyQx4Q-NcElafL-38" value="&lt;a style=&quot;box-sizing: border-box; background-color: rgba(73, 204, 144, 0.1); display: inline; color: rgb(59, 65, 81); cursor: pointer; text-decoration-line: inherit; font-family: monospace; font-size: 16px; text-align: start;&quot; class=&quot;nostyle&quot;&gt;&lt;span style=&quot;box-sizing: border-box;&quot;&gt;POST:/v1&lt;wbr style=&quot;box-sizing: border-box;&quot;&gt;/custom-report&lt;wbr style=&quot;box-sizing: border-box;&quot;&gt;/async&lt;/span&gt;&lt;/a&gt;" style="swimlane;whiteSpace=wrap;html=1;" vertex="1" parent="WIyWlLk6GJQsqaUBKTNV-1">
          <mxGeometry x="30" y="1023" width="270" height="160" as="geometry">
            <mxRectangle x="70" y="1063" width="240" height="30" as="alternateBounds" />
          </mxGeometry>
        </mxCell>
        <mxCell id="PExKw9lyQx4Q-NcElafL-45" value="&lt;pre style=&quot;box-sizing: border-box; max-height: 400px; min-height: 6em; overflow: auto; background: rgb(51, 51, 51); border-radius: 4px; hyphens: auto; margin-top: 0px; margin-bottom: 0px; padding: 0.5em; text-wrap-mode: wrap; word-break: break-word; overflow-wrap: break-word; color: white; font-weight: 600; text-align: start;&quot; class=&quot;body-param__example microlight&quot;&gt;&lt;code style=&quot;box-sizing: border-box; font-family: Consolas, monaco, monospace; font-size: 1em; word-break: break-all; text-wrap-mode: nowrap;&quot; class=&quot;language-json&quot;&gt;&lt;span style=&quot;box-sizing: border-box;&quot;&gt;{&lt;br/&gt;&lt;/span&gt;&lt;span style=&quot;box-sizing: border-box;&quot;&gt;  &lt;/span&gt;&lt;span style=&quot;box-sizing: border-box;&quot; class=&quot;hljs-attr&quot;&gt;&quot;creatorAttuid&quot;&lt;/span&gt;&lt;span style=&quot;box-sizing: border-box;&quot;&gt;: &lt;/span&gt;&lt;span style=&quot;box-sizing: border-box; color: rgb(162, 252, 162);&quot;&gt;&quot;ab1984&quot;&lt;/span&gt;&lt;span style=&quot;box-sizing: border-box;&quot;&gt;,&lt;br/&gt;&lt;/span&gt;&lt;span style=&quot;box-sizing: border-box;&quot;&gt;  &lt;/span&gt;&lt;span style=&quot;box-sizing: border-box;&quot; class=&quot;hljs-attr&quot;&gt;&quot;requesterAttuid&quot;&lt;/span&gt;&lt;span style=&quot;box-sizing: border-box;&quot;&gt;: &lt;/span&gt;&lt;span style=&quot;box-sizing: border-box; color: rgb(162, 252, 162);&quot;&gt;&quot;ab1984&quot;&lt;/span&gt;&lt;span style=&quot;box-sizing: border-box;&quot;&gt;,&lt;br/&gt;&lt;/span&gt;&lt;span style=&quot;box-sizing: border-box;&quot;&gt;  &lt;/span&gt;&lt;span style=&quot;box-sizing: border-box;&quot; class=&quot;hljs-attr&quot;&gt;&quot;cfasId&quot;&lt;/span&gt;&lt;span style=&quot;box-sizing: border-box;&quot;&gt;: &lt;/span&gt;&lt;span style=&quot;box-sizing: border-box; color: rgb(162, 252, 162);&quot;&gt;&quot;123456789&quot;&lt;/span&gt;&lt;span style=&quot;box-sizing: border-box;&quot;&gt;,&lt;br/&gt;&lt;/span&gt;&lt;span style=&quot;box-sizing: border-box;&quot;&gt;  &lt;/span&gt;&lt;span style=&quot;box-sizing: border-box;&quot; class=&quot;hljs-attr&quot;&gt;&quot;reportName&quot;&lt;/span&gt;&lt;span style=&quot;box-sizing: border-box;&quot;&gt;: &lt;/span&gt;&lt;span style=&quot;box-sizing: border-box; color: rgb(162, 252, 162);&quot;&gt;&quot;Activation_Report&quot;&lt;/span&gt;&lt;span style=&quot;box-sizing: border-box;&quot;&gt;,&lt;br/&gt;&lt;/span&gt;&lt;span style=&quot;box-sizing: border-box;&quot;&gt;  &lt;/span&gt;&lt;span style=&quot;box-sizing: border-box;&quot; class=&quot;hljs-attr&quot;&gt;&quot;startDate&quot;&lt;/span&gt;&lt;span style=&quot;box-sizing: border-box;&quot;&gt;: &lt;/span&gt;&lt;span style=&quot;box-sizing: border-box; color: rgb(162, 252, 162);&quot;&gt;&quot;20240124&quot;&lt;/span&gt;&lt;span style=&quot;box-sizing: border-box;&quot;&gt;,&lt;br/&gt;&lt;/span&gt;&lt;span style=&quot;box-sizing: border-box;&quot;&gt;  &lt;/span&gt;&lt;span style=&quot;box-sizing: border-box;&quot; class=&quot;hljs-attr&quot;&gt;&quot;endDate&quot;&lt;/span&gt;&lt;span style=&quot;box-sizing: border-box;&quot;&gt;: &lt;/span&gt;&lt;span style=&quot;box-sizing: border-box; color: rgb(162, 252, 162);&quot;&gt;&quot;20240124&quot;&lt;/span&gt;&lt;span style=&quot;box-sizing: border-box;&quot;&gt;&lt;br/&gt;&lt;/span&gt;}&lt;/code&gt;&lt;/pre&gt;" style="text;html=1;align=center;verticalAlign=middle;resizable=0;points=[];autosize=1;strokeColor=none;fillColor=none;" vertex="1" parent="PExKw9lyQx4Q-NcElafL-38">
          <mxGeometry y="20" width="270" height="140" as="geometry" />
        </mxCell>
        <mxCell id="PExKw9lyQx4Q-NcElafL-39" value="Display error notification" style="whiteSpace=wrap;html=1;" vertex="1" parent="WIyWlLk6GJQsqaUBKTNV-1">
          <mxGeometry x="75" y="903" width="120" height="60" as="geometry" />
        </mxCell>
        <mxCell id="PExKw9lyQx4Q-NcElafL-41" value="if count is &amp;gt; Y" style="text;html=1;align=center;verticalAlign=middle;resizable=0;points=[];autosize=1;strokeColor=none;fillColor=none;" vertex="1" parent="WIyWlLk6GJQsqaUBKTNV-1">
          <mxGeometry x="210" y="903" width="100" height="30" as="geometry" />
        </mxCell>
        <mxCell id="PExKw9lyQx4Q-NcElafL-42" value="Display warning Notification ?&lt;br&gt;not in new figma" style="whiteSpace=wrap;html=1;" vertex="1" parent="WIyWlLk6GJQsqaUBKTNV-1">
          <mxGeometry x="570" y="903" width="120" height="60" as="geometry" />
        </mxCell>
        <mxCell id="PExKw9lyQx4Q-NcElafL-44" value="if count between X &amp;amp; Y" style="text;html=1;align=center;verticalAlign=middle;resizable=0;points=[];autosize=1;strokeColor=none;fillColor=none;" vertex="1" parent="WIyWlLk6GJQsqaUBKTNV-1">
          <mxGeometry x="420" y="903" width="140" height="30" as="geometry" />
        </mxCell>
        <mxCell id="PExKw9lyQx4Q-NcElafL-50" value="" style="edgeStyle=orthogonalEdgeStyle;rounded=0;orthogonalLoop=1;jettySize=auto;html=1;" edge="1" parent="WIyWlLk6GJQsqaUBKTNV-1" source="PExKw9lyQx4Q-NcElafL-46" target="PExKw9lyQx4Q-NcElafL-49">
          <mxGeometry relative="1" as="geometry" />
        </mxCell>
        <mxCell id="PExKw9lyQx4Q-NcElafL-46" value="API returns" style="rhombus;whiteSpace=wrap;html=1;" vertex="1" parent="WIyWlLk6GJQsqaUBKTNV-1">
          <mxGeometry x="330" y="1203" width="80" height="80" as="geometry" />
        </mxCell>
        <mxCell id="PExKw9lyQx4Q-NcElafL-80" value="" style="edgeStyle=orthogonalEdgeStyle;rounded=0;orthogonalLoop=1;jettySize=auto;html=1;" edge="1" parent="WIyWlLk6GJQsqaUBKTNV-1" source="PExKw9lyQx4Q-NcElafL-49" target="PExKw9lyQx4Q-NcElafL-79">
          <mxGeometry relative="1" as="geometry" />
        </mxCell>
        <mxCell id="PExKw9lyQx4Q-NcElafL-49" value="call status API" style="whiteSpace=wrap;html=1;fillColor=#ffe6cc;strokeColor=#d79b00;" vertex="1" parent="WIyWlLk6GJQsqaUBKTNV-1">
          <mxGeometry x="310" y="1373" width="120" height="60" as="geometry" />
        </mxCell>
        <mxCell id="PExKw9lyQx4Q-NcElafL-51" value="201" style="text;html=1;align=center;verticalAlign=middle;resizable=0;points=[];autosize=1;strokeColor=none;fillColor=none;" vertex="1" parent="WIyWlLk6GJQsqaUBKTNV-1">
          <mxGeometry x="370" y="1308" width="40" height="30" as="geometry" />
        </mxCell>
        <mxCell id="PExKw9lyQx4Q-NcElafL-53" value="&lt;a style=&quot;box-sizing: border-box; background-color: rgba(73, 204, 144, 0.1); display: inline; color: rgb(59, 65, 81); cursor: pointer; text-decoration-line: inherit; font-family: monospace; font-size: 16px; text-align: start;&quot; class=&quot;nostyle&quot;&gt;&lt;span style=&quot;box-sizing: border-box;&quot;&gt;POST:/v1&lt;wbr style=&quot;box-sizing: border-box;&quot;&gt;/custom-report&lt;wbr style=&quot;box-sizing: border-box;&quot;&gt;/status&lt;/span&gt;&lt;/a&gt;" style="swimlane;whiteSpace=wrap;html=1;" vertex="1" parent="WIyWlLk6GJQsqaUBKTNV-1">
          <mxGeometry x="30" y="1342" width="275" height="168" as="geometry" />
        </mxCell>
        <mxCell id="PExKw9lyQx4Q-NcElafL-54" value="&lt;pre style=&quot;box-sizing: border-box; max-height: 400px; min-height: 6em; overflow: auto; background: rgb(51, 51, 51); border-radius: 4px; hyphens: auto; margin-top: 0px; margin-bottom: 0px; padding: 0.5em; text-wrap-mode: wrap; word-break: break-word; overflow-wrap: break-word; color: white; font-weight: 600; text-align: start;&quot; class=&quot;body-param__example microlight&quot;&gt;&lt;code style=&quot;box-sizing: border-box; font-family: Consolas, monaco, monospace; font-size: 1em; word-break: break-all; text-wrap-mode: nowrap;&quot; class=&quot;language-json&quot;&gt;&lt;span style=&quot;box-sizing: border-box;&quot;&gt;{&lt;br/&gt;&lt;/span&gt;&lt;span style=&quot;box-sizing: border-box;&quot;&gt;  &lt;/span&gt;&lt;span style=&quot;box-sizing: border-box;&quot; class=&quot;hljs-attr&quot;&gt;&quot;creatorAttuid&quot;&lt;/span&gt;&lt;span style=&quot;box-sizing: border-box;&quot;&gt;: &lt;/span&gt;&lt;span style=&quot;box-sizing: border-box; color: rgb(162, 252, 162);&quot;&gt;&quot;ab1984&quot;&lt;/span&gt;&lt;span style=&quot;box-sizing: border-box;&quot;&gt;,&lt;br/&gt;&lt;/span&gt;&lt;span style=&quot;box-sizing: border-box;&quot;&gt;  &lt;/span&gt;&lt;span style=&quot;box-sizing: border-box;&quot; class=&quot;hljs-attr&quot;&gt;&quot;requesterAttuid&quot;&lt;/span&gt;&lt;span style=&quot;box-sizing: border-box;&quot;&gt;: &lt;/span&gt;&lt;span style=&quot;box-sizing: border-box; color: rgb(162, 252, 162);&quot;&gt;&quot;ab1984&quot;&lt;/span&gt;&lt;span style=&quot;box-sizing: border-box;&quot;&gt;,&lt;br/&gt;&lt;/span&gt;&lt;span style=&quot;box-sizing: border-box;&quot;&gt;  &lt;/span&gt;&lt;span style=&quot;box-sizing: border-box;&quot; class=&quot;hljs-attr&quot;&gt;&quot;cfasId&quot;&lt;/span&gt;&lt;span style=&quot;box-sizing: border-box;&quot;&gt;: &lt;/span&gt;&lt;span style=&quot;box-sizing: border-box; color: rgb(162, 252, 162);&quot;&gt;&quot;123456789&quot;&lt;/span&gt;&lt;span style=&quot;box-sizing: border-box;&quot;&gt;,&lt;br/&gt;&lt;/span&gt;&lt;span style=&quot;box-sizing: border-box;&quot;&gt;  &lt;/span&gt;&lt;span style=&quot;box-sizing: border-box;&quot; class=&quot;hljs-attr&quot;&gt;&quot;reportNameList&quot;&lt;/span&gt;&lt;span style=&quot;box-sizing: border-box;&quot;&gt;: [&lt;br/&gt;&lt;/span&gt;&lt;span style=&quot;box-sizing: border-box;&quot;&gt;    &lt;/span&gt;&lt;span style=&quot;box-sizing: border-box; color: rgb(162, 252, 162);&quot;&gt;&quot;Activation_Report&quot;&lt;/span&gt;&lt;span style=&quot;box-sizing: border-box;&quot;&gt;&lt;br/&gt;&lt;/span&gt;  ]&lt;br/&gt;}&lt;/code&gt;&lt;/pre&gt;" style="text;html=1;align=center;verticalAlign=middle;resizable=0;points=[];autosize=1;strokeColor=none;fillColor=none;" vertex="1" parent="PExKw9lyQx4Q-NcElafL-53">
          <mxGeometry x="22.5" y="21" width="230" height="140" as="geometry" />
        </mxCell>
        <mxCell id="PExKw9lyQx4Q-NcElafL-58" value="" style="edgeStyle=orthogonalEdgeStyle;rounded=0;orthogonalLoop=1;jettySize=auto;html=1;" edge="1" parent="WIyWlLk6GJQsqaUBKTNV-1" source="PExKw9lyQx4Q-NcElafL-55" target="PExKw9lyQx4Q-NcElafL-57">
          <mxGeometry relative="1" as="geometry" />
        </mxCell>
        <mxCell id="PExKw9lyQx4Q-NcElafL-61" value="" style="edgeStyle=orthogonalEdgeStyle;rounded=0;orthogonalLoop=1;jettySize=auto;html=1;" edge="1" parent="WIyWlLk6GJQsqaUBKTNV-1" source="PExKw9lyQx4Q-NcElafL-55" target="PExKw9lyQx4Q-NcElafL-60">
          <mxGeometry relative="1" as="geometry" />
        </mxCell>
        <mxCell id="PExKw9lyQx4Q-NcElafL-64" value="" style="edgeStyle=orthogonalEdgeStyle;rounded=0;orthogonalLoop=1;jettySize=auto;html=1;" edge="1" parent="WIyWlLk6GJQsqaUBKTNV-1" source="PExKw9lyQx4Q-NcElafL-55" target="PExKw9lyQx4Q-NcElafL-63">
          <mxGeometry relative="1" as="geometry" />
        </mxCell>
        <mxCell id="PExKw9lyQx4Q-NcElafL-55" value="if&amp;nbsp;&lt;div&gt;reportStatus&lt;/div&gt;&lt;div&gt;is&lt;/div&gt;" style="rhombus;whiteSpace=wrap;html=1;" vertex="1" parent="WIyWlLk6GJQsqaUBKTNV-1">
          <mxGeometry x="330" y="1700" width="80" height="80" as="geometry" />
        </mxCell>
        <mxCell id="PExKw9lyQx4Q-NcElafL-93" value="" style="edgeStyle=orthogonalEdgeStyle;rounded=0;orthogonalLoop=1;jettySize=auto;html=1;" edge="1" parent="WIyWlLk6GJQsqaUBKTNV-1" source="PExKw9lyQx4Q-NcElafL-57" target="PExKw9lyQx4Q-NcElafL-84">
          <mxGeometry relative="1" as="geometry" />
        </mxCell>
        <mxCell id="PExKw9lyQx4Q-NcElafL-57" value="update custom report inline status with download link" style="whiteSpace=wrap;html=1;fillColor=#d5e8d4;strokeColor=#82b366;" vertex="1" parent="WIyWlLk6GJQsqaUBKTNV-1">
          <mxGeometry x="310" y="1877" width="120" height="60" as="geometry" />
        </mxCell>
        <mxCell id="PExKw9lyQx4Q-NcElafL-59" value="Suceess" style="text;html=1;align=center;verticalAlign=middle;resizable=0;points=[];autosize=1;strokeColor=none;fillColor=none;" vertex="1" parent="WIyWlLk6GJQsqaUBKTNV-1">
          <mxGeometry x="360" y="1805" width="70" height="30" as="geometry" />
        </mxCell>
        <mxCell id="PExKw9lyQx4Q-NcElafL-60" value="update custom report inline status as in progress&lt;div&gt;disable menu and group icon&lt;/div&gt;" style="whiteSpace=wrap;html=1;" vertex="1" parent="WIyWlLk6GJQsqaUBKTNV-1">
          <mxGeometry x="60" y="1690" width="120" height="80" as="geometry" />
        </mxCell>
        <mxCell id="PExKw9lyQx4Q-NcElafL-62" value="In progress" style="text;html=1;align=center;verticalAlign=middle;resizable=0;points=[];autosize=1;strokeColor=none;fillColor=none;" vertex="1" parent="WIyWlLk6GJQsqaUBKTNV-1">
          <mxGeometry x="200" y="1705" width="80" height="30" as="geometry" />
        </mxCell>
        <mxCell id="PExKw9lyQx4Q-NcElafL-63" value="update custom report inline status as failed" style="whiteSpace=wrap;html=1;" vertex="1" parent="WIyWlLk6GJQsqaUBKTNV-1">
          <mxGeometry x="630" y="1710" width="120" height="60" as="geometry" />
        </mxCell>
        <mxCell id="PExKw9lyQx4Q-NcElafL-65" value="Failed" style="text;html=1;align=center;verticalAlign=middle;resizable=0;points=[];autosize=1;strokeColor=none;fillColor=none;" vertex="1" parent="WIyWlLk6GJQsqaUBKTNV-1">
          <mxGeometry x="470" y="1710" width="60" height="30" as="geometry" />
        </mxCell>
        <mxCell id="PExKw9lyQx4Q-NcElafL-70" value="" style="shape=image;verticalLabelPosition=bottom;labelBackgroundColor=default;verticalAlign=top;aspect=fixed;imageAspect=0;image=data:image/png,iVBORw0KGgoAAAANSUhEUgAAASUAAADoCAYAAACpZvKpAAAAAXNSR0IArs4c6QAAAARnQU1BAACxjwv8YQUAAAAJcEhZcwAADsMAAA7DAcdvqGQAAC59SURBVHhe7Z0LlBXVme83vsA1AuIyhpvm5SPBBwQ6ERREgTWzInijQJJJ8JoIJHFgRU1DTDBvIA+TOGYaJskKSLTBxKB5CK1ZAhmUxgBKEgYMT73MyHtMroq0BhHRc/dv9/5O766u8+o+3af69Pdbq1bVftTeu+rU/tf37dqnqkvKYhRFURLCKX6tKIqSCFSUFEVJFCpKiqIkChUlRVEShYqSoiiJQkVJUZREoaKkKEqiaNd5SlTF8s4776S3u3TpYk455RS3sK0oSuemXUSJKt566620GGUCUTr99NPNqaee6mMURelstLkonTx50i2FVIM4de3aVS0nRemEtJkoUSzW0dtvv+1jCkOtJkXpnLTZQHdrBAkQtRMnThRkYSmK0vFpE0sJdw1RKgbqyikdgdfeOGmeP1RvnrML2wMrepj3VXQ37znnTJ9DyZeiixLFHT9+3IeKAy7cGWec4UOKkix++dRes2jVHrf9v3qdabqfebp5/nCDOP2f0QPM9GsvsnGnuXQlN0UXJVyufN22+vp606NHDx/KTrdu3VplLW3dutW8+uqrZsyYMT6mKbnSW8u0adNMTU2NDzWFeufNm2eqq6t9TG5o77PPPutDDfTv37+o7c/WrtraWpcOZ599thkyZIgZMGCAC5eavXv3mqVLl5o5c+b4mLZjzrJtpm7bX82N1wwwN1kBCsXn0T8eMotW7zFctffeOlytpjwp6pgS+pavIH3hC18yl1021OzYsdPHZAeXsDXQiSZNmpTuSFEQDS7kYkAds2bN8qEG6urq/FZzyI/IFArnm3JXrFjhtjMdWwj1IDT5kK1dM2fOdOnUSx7OX77HsG7duqKda4iWh0i25HwWCoKzec8rZtkXrzIzxjVYQ7hvzx16zaXfMLzCLLZidJaNR7yU/CiqKDEPKV8uvfQSu1xqevbMz1JqzaC5wMW6YMECH2qEizquQxOHNRK1SEDyx6UTRiz27dvnYxohjvoyEbcPdUXbN3ToUDN16lQzevTo9PbEiRN9amM94X5sE0+HjdaTq11xUB/1YpGwRMUuUxuoP64NpHHusHRCiJclmh5XHr/z/Pnz3XZI3G8FlAGk5XsODr/yhnPZcM1CC2iuFZ8b79ngQ8al/dunP+DGm/5sBUzJTclE6bOf/bRZvfp3pk+fPj4mO9yRWVoDd3esiihLlixpZupz562srHRpc+fONeeff366M7DG6ho7dmw6nbzScegQrImnswh0WuLYh/zRzgekR62qbBZeFPLRLsSCY6UeEQtpG22iHsJyLITJz75hm/MFIZA2sqZMzjfHQpnSBsqmHuKpU+BmgbVFGlZmaGkSJ+mcO8rOVV7oxpKH3499Of7ouac8FkknrxxLJnDZEJzrrTUU8i9WpObdONiHGnD5hlWYX65rfsNRYrAdvWi8+eabqWPHjuW1PPHEk6nZs7+SevHFF2PT4xYrer6mwrEXbMpedG5tL2Ifm0q98MILKduBU/aidmuJGzBgQOrIkSMuDGvXrk3ZC91tSzprwXbAlL2g3Tbxklcg//Lly32ooTxrabjtMH9YD8SVFVJTU+OOSeAYqqurfaiBKVOmuGOH8DiF6HHGtSsKx2M7tttmf/aROjgX0TaQTtkQbTPhaJvYX/KQHm0H4S1btrjtaHlA+4BjsJakWwsSJ8dNNwjTKStaXpRZ921O/esju3yokd0Hj6ae/MtffaiR2k0HU//7W3U+pGSjZH/I/dnPasx999WYHTt2+Zj2oaqqqolpzx3XdlofaoC7Mnm4+wu2E7i1uAj2om8ysMtAb667K+6OgMsVl1/qEWuF9mFx5AtWQzS/7WAuPhO0QywR1rmOQ2AAnIcP7IcbKeeRurBGcIVk4XgZ14uDeI47zC+WjSDnReDc59NOyraC1+S3Ypv2yDmO/pbUFWfFhrz+xsnYJ2p12/5mLaLm+/bQp295UzJRmjv3G+ZXv/qlGTHiCh/TPiA0XICY+1x4LNELPtPFzr72jupDrSMUvCgIpwzc0r4JEya47XzIVG6mY6J8XBdEFZGx1pxPyQ0uFgJIBw+FkLo4T+HCk8FsxxHdx1oxBT2NzEbcOSHu6NGjPlQ4PPr/n1fe8KHcMAbFVAElN0UVJf7pny99+/Yxl112qQ/lR7EmUHJHxwJh4S4ahc4TtSzovHScqIC1BVhU1I/VEte+bCC4tDUEawHhiAPxQ1A4LjpqdN9cMBZHW8PzRV2UR9vDJdO5k7aFeTkHoWXZUhDb0OISaC9pLWVgRXezdvvf3FykfKized/3nu4+pGSjZKJU6JSAQsrOhXQOzPeo6wZ0BuvaOrcEV0KmE2DB5AOdm7LjniTlCx0Ttwu3qBCwLmg3YkPbEV5cURnIx2KhTaQhspRPujx5ik5lyAXHinVFPXKstIHzxXmjXMSVwW5BhJN02sB5RThoM/nlfIt7lQspT44phN+aYwx/S9rC7x66bIXSMMCdinXVojBfiSdv08dd5GOUbJxqL/zGRxatBEsm30f3Bw4cdH8fGTfuQ3lNoOTPua0VJi7C3r17u225m4cXJh3s4osvdtsIExe4XOh33nlnkzv9mWee2cz6oGzKY6In26tXr3blsc25ufLKK33OBoiTMqLl0cmIQ5xyIfXKNu2kcz/zzDMu/NOf/tQdG8ia46I+FtqFIDATH/EK2xJ3nEDbr7jiCneslEkZmzZtcnmpc9y4cS6Mm0z69773PZcXaCvnNMw/Y8YMJ0KcMyB/+NuExyhwbilbypNjIi483/K7UTbndfr06U3Oa9xvQxlyLcTR9fRTzYDz/sHc9Zudzi0bPKDhvPKk7fKLzjHn9ujqwsxjYprA1H+8wIwd/G4Xp2Sn6DO6+c9bayc6RuGi6Wz/f+NuXlNT06wjKsli4ao95t7Ve5zldMOwCidKZ/E3k0P15tE/HTKPWSuJaQJMrlTyo03++/bmm2+2ek5RyGmnneYspc4Cd3PcjbVr1/oYJcnIRMrHrAiFfPDCc5zLhuWk5E/RRQmYRIkwFQOsIzH7OwsyLoILoXQsECjApdM/4baMNhElKIYb1xndNkXp7BT16VsI7hZuV0tRQVKUzkmbWUoCxRcyxoQI8f6kzjSGpChKI20uSgKuHGNNLHFVihhhXal1pCidl3YTpZBQmBAgWRRFUUoiSoqiKJlos4FuRVGUlqCipChKolBRUhQlUbTJmBJTAPiqiaIUm+7d9fUf5U7RRYl/px8+fFi/06a0Ca+99poZNWqUOffcc32MUm4UVZR27drlLprhw4f7GEUpLljhK1euNOPHj3cz/pXyo6hjSlhIF1xwgQ8pSvFBiHh/N6/MVcqTog90691LaWt0aKC80adviqIkChUlRVESRcED3fyxlnc5x7Fx40YzYsQIfWyrtCk8UGHKyYUXXuhjlHKiqJZSkWcXKEpG9ForX4o6JeCJJ55w0wHUUlLaEiwl3iqR7WsjSsdFx5QURUkUKkqKoiQKFSVFURKFipKiKIlCRUlRlERRNqLE2wn4ljxfl1UUpeNSMlHavn2H2bBhozlw4ICPaYC4uPhMLFiwwPTq1cuMGTPGTJw40f1Zc9KkSSpOitJBKYko3X33D82nPjXNru8xy5Y97GONEyLibrttpqmsHJ5TmJYsWWJmzpxp5syZ4/41fuTIEbfms9djx45Nf/5aUZQOBJMni8WaNWtS9fX1PpSZG274SGr9+g0+1JRt27alhg4dlqqsHJYxjzBgwICUFSQfasSKU+rss89OzZ0714WtcKXmz5/vwsSzEEc+YcuWLSlrbTGR1JUr+wL7Tp061e3DvtF0pX3ZuXNnateuXT6klBuJGlPavn27taA+bR544H7Tt29fHxuPjB9ZsfAxjVjhcPErVqxwYSwmKyxubcXHLF++3KXNmjXLpVMOltWECROctUU6VhiuIbAfYWD/qqoqY0XJ1NXVuThFUYpHYkQpFKTBgweZH/1ovrnqqpE+NTPWavFbTUGYQvdt6NChprq62uVn/KmmpsYJDXkQH+IYizp69Kgbo8IlRMgE0mV/XEbK27dvn09VFKVYJEKUGDsKBQn69ctuKfXv39+tM1krWD+hYCEiIYgMbN261eVljXUly9KlSzMKHiB6iqIUn0SIEq5abe1v04KUD2LxzJs3z8c0gsBgBYWuXVS8cP8AsaIsntytXbu22aIoSvuSGPctahl9/evftK5UvQ/FgwuGlcM0AFyw2tpaJ1KMD+F+TZkyxedsEKpp06Y5McIKQrDIg8XDGJGMITHfiXIqKyt1zEhRSkCiBrpDtm3b4caZsoGFgzWDlcPANWM9iA8D1QxEh5BnyJAhLg9jRTJYDZTDALa4cKQjaOLi4SpG3T/C4kIqilI8SvI+pZtvnuYso/Hjx/mYpmAhYSk98ECNGTToMh/bcrCQAMtK6fjo+5TKm5KI0v79B6zofCOre3bddePN9Om3+FDrUFEqL1SUyptO8eZJGRsSd0zp2KgolTeJHVMqJoiRClLnhgciMpm2VPAgpS3bIHPuwvl5Ag94mCzMgyDORYjsRzoPgUpNpxAlRWGiK09V2xMm44YTbHv27Om3ig9Pj3nqzMMbJgCHIEQ8vBk9erR7OEO7QuHiSTP/ZOAfDYgmAlVKVJSUDgsdSxYsAZl71hJyvfomW3pcGmJEu4gTAeAJcNRiJ19cubKPHBt15IIn0dGnxJSLYPFEmvp5usxaLCLKR8hYaJv806GUqCgpHRY6Ki4HC+OGdCbu+oVApxQLgzKkPCFbOmlYHdRLGtsyfonFgSCwljgskNBa4wEMIhFXr7hT5CGdfHEThQXS4/5lwHQX3pwREuZjO5zPhwBGha3dYaC7WOT7lgBFaQ3ylgDbWd0bG0Js50xZIfChRshLWhTiqqurfagB3gZh3R23HZdO2HZ0tx2+aYI4a234UMptW2HyoZR7s4QVsPR29A0X1Es8sI62l/LC+uKI1hmFNlrRSbdf4HiJZ8lVR1ujlpLSocHlCGHcBAsmX7BCmFAbwsRaGZCOSyeMBQLUhUWDlRQ3iJwJysf6CuEfBqHrFD026mSCb0sRy456pP0CxyxvwCBPKVFRUjo1cS5PXFwcCBAdmAFixmwKmQcXJ5zUm2/dhUJ9uKGIDmNKmbDWWavFr7WoKCmdGkQAaygkfEME62i6jBOx0InFosnXSgKEIVouVlJbjecgSIwd0d4Qxq6i0wAQsDjRbC9UlJROA6JBB5QFsG5wuwjLH7oRB96dJem4Z3ReBoFJZxuxQozISzz7hgPVgOCFA90hWCzkp7ywXFyrYiP/aOA9YXLs0iasPKYLULccA1MXoq5je3Kq9WubOratgFH+iooK07VrVx+jKMXnpZdecjO6L7roItO7d+8m4yMIAeGoG0S4W7duPtQAVgnxdEAE67nnnnN/2qaTSl7SZ8yYYXbv3u2e9jHPh3TiWcaNG+c68/Hjx52gMMtcZppfeeWVZtOmTS4fceGahXKpV8r9/ve/744HwrwC23HHFkI6S3isWD20JSQsi2N48cUX3fFfccUV5stf/rLPVRo6xd9MlPJC/2ZS3qj7pihKolBRUhQlUagoKYqSKFSUFEVJFCpKiqIkChUlRVESRYcWpe3bd5gNGzY2WbK9Yvehhx42K1euctuLFi12i6IoySJRosTXSyZM+KiprBzuPhyQi6997ZvmU5+aZm67rSq9ZPsCyvr1G822bQ3pCNiyZQ+7bbj99plWsFb6kKIopSIxoiSCdN1148zPf36/+8TS3Xff41MzM2PGLWbLlj+ll+invvn6bn19c+uJL6XU1a3xIQRrQ87vzCmK0vYkQpQQJD7b/Z3vfMu7VF3M9Omfde5ZS0GMxOoaOnSY+6xTKDoIHtYRVFYOs/kPWktrpt3nIy5OUZTSUHJREkF64IH7zY03fsKtEZBFi37WzOqJY8OGp53AyCLCgyD17dvH/Nd/PWf++7+fMyNHjkyPJ0XBwiLvj38839TWPuJjFUUpBSUVpVCQBg8e5OIGDRrkPlKJuEye/AkXlw3yYRXJAowX8W252bO/aHr27OHicPPyETlFUUpLyUQpTpDg7rt/6Kyf2trfpgUlG9ddd6350Y8WpBfZh9cv8BXeEKwhRVGSTUlEScZ7cJdCQWJM5/HHV+UtSJngU998ZgaLSWCwe+PGp31IUZSkUhJRQix69Ohpvva1OekxIASJge1CBWnlytVuwFqWjRs3Oitp9uw7zM03f9rFLVp0rxPBHj0yl9uvXz8niMxlUhSldJTkJW+4aFVVtznx+fa37zJ//vN/2tiUWbx4YUGC1KWLMeed9y63jyyMSZ133nlu/Ig0rLK//e3/mc9//jZz+eUfMO9973vTbl3fvn1t+CK3Tf7Nmzc7kbz88g+abt30RXVJRV7ydu655/oYpZwoyUveLrxwoBuERjAWLlxsJk/+uHXlSvtVTqXjoC95K2/a3X3DRUMGN2zYYPr06WO2bPmjCpKiKGkKtpROnDhhjh075kNNefrpp82oUaP0dbhKm4Kl9MYbb5gLLrjAxyjlRMGidPLkSbfE8dRTT5kRI0aoKCltCqLEzXHgwIE+Rikn9MMBSodDx5TKm5LO6FYURYmioqQoSqJQUVIUJVGoKCmKkihUlBRFSRQqSoqiJAoVJUVREoWKkqIoiUJFSVGURKGipChKolBRUhQlUagoKYqSKFSUFEVJFCpKiqIkChUlRVESRcnep8Qnj/gMUhRe5p8vS5YsMfv27fMhY8aMGWNGjx7tQ8Xh/PPPN8uXLzdDhw41Y8eONRMnTjRVVVU+VSkF+j6l8qYklhKfMeL7/jfc8JFmC59CypelS5eaFStWmL1795qtW7c6wUBECBcLynr11Vd9yJizzz7bb7UcxK22ttaHFMWYzXteMb9ct9fMXbbN3LNit3nsj4fM4Vfe8Kmdi5KI0rJlvzI//3mN+4Z/dIl+RDIXCFFNTY2zZrZs2eJEg04vrFu3romosE1cdJs1QpFN0ObPn9/MEmM/xPHZZ5/1MQ1I2dEyyYeAyhKSTxuU8gLh+Zef/NHcYpdHrRDhtxx++ZhZuHqP+fC315lFdt3pwH0rFmvWrElZt8yHMmMtotT69Rt8qCmkDR16eaqycljq1VeP+th4rLuWmjt3rg81cOTIEdzR1Nq1a12YbdvJ3TZYAUsNGDCgyTblWPfMrckflhmWRbp1Gd32Cy+84PaxIujiWc+cOTOdRrlhmVbQXNqECRNcXtLD/ORlsSLr0qLHpTSyc+fOlHXhfKjlcN4531wzpWD3waOpa77yH6lZP9ucOvTyMR/bSO2mg6nrvlWX+uYv/+JjOgeJHOjmk0t8zZbvwhUKlpLt1GkLKBdYJVYonJVlxcctfJ+zrq7O54hn1qxZrh57Qbt92B/riPKIx3qTMtmWb37ibtJGwtXV1S5u3rx56TZg8bEP42W52qAUBtcEv5vA72BvBEVxyQsFC+kL928xN14zwPzbZz5g3nPOmS4eF07cthuGV5jFtw43ddv+auMbx07LncQ+fePT23ED4flQyEVGXmux+FDDYDkXatQdi4K4zJkzx4dMWohYAwOxkyZNcmNciE7oQkaRAXvyseAO0i7WSjy4vplcXc4l5y68MXH+2Yf8xBPmHPN7hxDPvnFlsz/pmdxs2TeuTVEe+9Mh08WuZ4xr+EIzIEaMJ927qtFlQ6zumHiJc+NeeyP+K0LlRtlNCeCC4OLJ9ylcnIARxwWWCUnr1auXW0fhgmWsa8qUKWnrKxcIYf/+/dMLT/jYX4mH34DfGuEPx+YQ9alTp7p0xL6ystLlk+uCdWiBkldAUBiPZF/yTps2zd18BKwsqU/SKQ+kLdb7cPly3VCwfqZf2yhIgAD98NOV5o5Jl/iYBrCYjEm5fToFDV5ccSjWmBJp2fIIjNeEYy8ylkO8YAUmZS8sH0ql7EXo8gBjSpwCKxouDJQRxoXblCtjSmzLmBAwLkHZ5KVNjFUIUo9A/VIORI8DbMfxW0qUcEyJ8815B86zbAvWJU5Zl9htc06j6XItyLUTji9F4/gNiRO4ruQaoG4ZNyR/WE4clTNXpv70f1/2oUYeXPdCavfB5n1o1n2bU//6SOvH0ToCJbGUevbs4T7fzZhR3FII3A25u+EmsdiLyI3LCFgc9kJ0dzHyhXdVwCrijkc6a+6suGVWKHyOeHDVuItSJvvJVAQsHqw00ojnrrlgQdPPktNGxpRkfIOxJY6DNhBHmbQ5m7XW2cES4XxhGYm1goUatS75PbBac4G7zjkPLWd+J/alXAmzCEOGDElfT+Tj6Sy/Ob9bnAUuyJhRhR9HCnlw3T7z/KF6H+qclESUZs++wyxb9rDtvP/UbJ7S5MkfN1ddNdLnzA7iwcKFyNrexZyrFF4QdH4EhIuTPAiWDDADedmPMshDOvsI7CsXIvuLW0gcA9OIHtsyQE15CBplUh4XLmmUI7DNOBZpQD72ZbCb/eVYsl3YnR1+r+h55Xy19JxZyyZ233zLJI9cR7ncN9y07meeZp479JqPyc3/WCGTwfCyx1tMRSFf90249dbPpxYuvDe1f//+ZgtTArZt2+5ztg32gk6b70rHIXTfcM9wf4HfM3SpwQpF2jXO5r7hbtmbQxO3i23SKQOi1wrxUjdly760KVpPlM/+eJN1yf7ThxphCsCjmw76UANMF8Ddi3PrypGSDnTPnv1F8/jjK5tZSyzTp99iBg26zOdUlKbgsmGNiAsMuF+AC0Uarh0unrh0PNHF3SIt6hpj6ZAP9x13mzy40VitWMK5wGqmXlw99s3l/jPIzcD1n/e84mMa6X7m6X6rgXtW7DIfvPAcM7Cic3wOv2T/fVOUlsJ/3+j8vXv3dmM5PE0Lx40IM0aECBEful+M9SFIEk843BexY3+I2zfMSzlh3WyzPyKWS5TgnuW7zGN/OuyeuF1+0TkujvEmRAn3jikACBJ/Qbn31uGdxn1TUVI6HOX0h9yFq/aYe1fvMdcPrzBjB707LUbPHa53EykRKERrYEUPv0f5o6KkdDjKSZTguUMI0D5Tt/2v6QmS73tPdzNm8LvNTaMHOKHqTKgoKR2OchMlpSllN6NbUZSOjYqSoiiJQkVJUZREoaKkKEqiUFFSFCVRFPXp2+9//3s3I1afviltye7du80ZZ5xhLr30Uh+jlBNFFaXVq1e7P5mqKCltyfPPP+9E6bLL9G9I5Yi6b4qiJAoVJUVREoWKkqIoiUJFSVGURKGipChKolBRUhQlUagoKYqSKEouSvX1r5mdO3eZZ57Z5NaFwgcr77rrLjN58mQzcuRIt37wwQd9avKgvXwsUVGUeEo2eRIxuv/+GvPrXz9ievTo7j7TffDgQZvSxTz88IOmTx8+wJed/fv3m/Hjx7t9P/nJT7pXlz711FPmD3/4g7n++uvND37wA58zOdA22vz666/7GKVQdPJkeVOwKJ04ccIcO3bMh5qyfv16c/nll+clSuPH32CuvPIKM2vW7U5UhF//+rdm/vx/N3PmfMN86EP/5GPjwSrC8li5cqWPaQBL5M477zSLFi1y72kG8mFB8V5lvkB70003uXj43e9+Z97//vebv/zlL26JpgNiwgIIYL9+/dw2wij7PPbYY+bWW291dcblJ+8vfvELZ9nRtquvvjpdTqbyleYgSm+//ba56KKmX5hVyoOC3bfTTjvNnHXWWbHLqaee6nNlB9G59NKLrfB8zVlMd9xxp1vDP//zR83ixT+1cbPTcXHQwRGTr371qz6mEQTioYceSgsSebmr8jJ5+O53v+usFQEBQ+AQDESLdOIERGT69OkuDcEbMWKEqxsIk8b+iBOwr+QnjvySJsKDRSduXFg+y7hx48xPfvITl6Y0wE1FFqzMt956y5w8eVKXMlxK4r5dddUY66L9wrpofdxY0i23zLDWUs8mbhuixB8uP/OZxm+9h9C5o24QHZmLVkCUsFwYa8LyYVtgXywS4hGsUaNGOesFKBuROXTokNtGMLDGELu4dMrasWNHOh2xkW2gfqwi3MlouxFMRGvjxo3Nyt+5c2daWDsz/KahSL/88svuBviud73LxyjlRLuL0o4du8wXvzjbdvLHXBhRqq7+d+vGfd7Mm/cdu65ybhtjTc8884z54Q/vdvmiYHnQ2UMxwELB0gDSGWPCYqqoqDAf/vCHm3Twbdu2mcGDBzshQpSwuMRlQ1SIQziwYugQ7B+CK0jdiIoIlEAcQkYd1Emb2J+6oqJE2dQRLR9LDCHErezsHD9+3LlsAr/P6aefbi688EIfo5QTiRGlxYsXeuvoEidQxN933xLnymUCscH6iXPhQusH15J1dJyGMIKWTZQQjUxuItYPIjNjxgwnUIJYRl/5ylecMCI6lJlJlFhIi4Joht8dUxrQge7ypt2nBPTtW2EOHjzUZLyIp27jx1/vB74/7+KefnqTc++ygVCIJSNg6mMxobUiJAgElhNrFqwP8oUuViZkAJy8sj9k25eyyYegsJ1tigIuJHmwqMLyCasgKZ2RdhclnrRhDf3mN7914e7dG5683XPPD9LjR4jWb37ziA03fG45E1hJCxcudKKEgHHnxHpCRMIxIPLwZIx0rBTWMlCdC0SCehjfYl+ZC4Xlk4nPfe5z6cFz8ocWGiKH4FAW7WabsSby5lu+opQzJRnoxjL6xCducuNHH/vYR6zVVJ+eFoAFRRrjSmI15QNuEdDJM43DIFZYJVG3CAGIWibEhdYQ40IyRoTIZMsLxDG2RF2C7BOmSVy28pWmqPtW3pRElECECQsEtw1RYkY3FtTHPvZRN11AUeJQUSpvSvY3E9ytDRvWOYsIgeJJW58+77Fu16MqSIrSiSmZpaQoLUUtpfKm5H/IVRRFCVFRUhQlUagoKYqSKFSUFEVJFCpKiqIkChUlRVEShYqSoiiJQkVJUZREUdTJk2vWrDHDhg1r8npbRSk2u3fvdutLLrnErZXyoqiWUpcuXcwpp5zi1rro0laLXGtKeaLum9KpWLBggVsKZcWKFaaurs6HSsOkSZPM1q1bfaj4rFu3zsyaNcuHGuENFvPmzXP1k753716f0gD7TZs2zaUvXbrUx7YcFSWlU8ErZkaPHu1D+cNHJ3jlTHtBxx87dqwPNTBhwoQ2eaUNdSEoc+fOdeIbgiBVVla6/7RWV1e780degfwzZ840VVVVZs6cOWb+/PmtFm8VJaVDwoVfW1sbe9fmbh2NF4YOHZru2OSh08k+rFsCZbB/pnqzpUta9Fhoi7SNNSAOoShlK1e+3JPrfABlIipr1671MY1wnseMGWMmTpxoBgwY4ASI/GKxcT6XL1/u1iyU09LzKKgoKR0WOhp3belwS5YscXd7XpSHmxF3x6aDSqdhm/3pjDzvYf849yUbWApYNAgEC+Xh6gh0XkmnDtIknX3JTzzHgAvEmrxHjhxxeV544QUXBgSBlxRCtnKBvLip5COdvJncVkQG4YkDMaqpqfGhRkQcESoWgXOLRdcqbIOLxpo1a1L19fU+pChtw86dO1O7du1y29ZdSFkhctusrbC47UyEediWfQV7t09ZQfChRjKVbTtzygqHDzVAnBW69HY03XZyt47WQzzHA+zDviGErWi5bSsEOeuVbaAu9slFrjy0b+rUqT7UCHHsG5dWKGopKR0aXAaxlKZMmeIsJSyOfAeEo+NLWABijeQCq4D8oaUAtIO0TOm247o1aVgvtBdLBhcun3aTh+OOlot1RBnC+eef77caLZvWQL2MGTG2FAVrCquOsadCrc0oZStKXBBi9iqdAzopHQNRoKO39dOy6HvdBRG1TOkCHRxBpZPjQiIq+UCZcdd2MYQnEwgS55R2hvVE28ExdOqBbk4UdxjmrHBXEJ+aH9qar3nf8ZTygDEh4LfHYgqthrYAEaQDiqUmIDYII9YM12g0XSwJbpx0YunkCGo+UC9iEFdvq8dzYhBBYkA7ap0RH7aD7dYaAyUTJRovgsKBtQQGCflB+TF5HMmFyAlUOid0Bq4JBrC5Flry6D8bDEzLgDJ1cO3RUbl+Zf4T1zRPoKTz4taQzj6SjgUFCBeiRFmkhyLK/vQR9om7puPKxXVCkIuJ9FMEVtrJIm2i34Xt4PzHuXeFUNS/mTzxxBNm+PDheb2jmwNhzoOMAXDQqDwnAOQxYzYQNC4UuTtwAuXHxHLC1OREEsaP5yIQOIHc5biQwzTKk/kopNMO4C7MRRPNr7Q/u3btcr/9xRdf7H4PFhEBsVx4ahTnzpBGPEu4LdDZ4q478rII7CP5qF+upbh6s6VTJmm0n/LCY5E02SeubVyv7IMYyX4QlzfTsYVE81A2cVHII8dBO8kTd3wtwg13F4lCnr7ZxqfsCXXbjOhbcXIj91ZlXTzpuSCP/SGaPRXhqQSHZk9c+omGPVHpJxvE8XQiLo12sC/pbIO9m6XLsiLl6iROKQ3h0zel/CiZKPG4Ujo3a4QEEUBoWPLt9NZ8dPuH4iSitGXLFhcGyosKnVX4lL0TpesE2kBZgpTFWuDxKkLG/kr7o6JU3pRsTAlzE/cKP9iKhzM98U9xxUjL1y+1IpJ+4oJbhbkr9OrVy281fWKBuYmbSD3WQnLxkga0RZCZseTHJWRhZi35w7oURSkOJREl/GA6OQsDZHRyxpUQC0QA/5Qxn2wgCowXCYgTYsITjVxQF3kRM8aMrJXkU5rDoKTkDRcr6DqupChtQLuLEmKCEGEVYSnJwqA3YoGlRGfHCiFfNqxLlhYvxAhRyzWQB1hNLEB7sJYygTUFYVsQ1VxtUxSlZbS7KGEJIQh0diwQWRAYRIV4FsJxo/4CZfBYFEHhSQzWjrh/uSAfwiKuWDZLCRBNRJJ6cAkRwmI/blYUxdMwtFQc8hnoZmDZio4PNcWKk9/Kni+Kdadi/6+UC/YrBOpoST1KcdGB7vKm3S0lmTgWBxaTkGuKfgj75Zs3JKwvH6ijJfUoipI/JZs8qSgtJZw8qZQfaVF6cd068/rehhmrZ1hroJ8fmwnjzxkyxJzjB5L319aaE/4xusQjSu8+fNh0e+edJvGwJ3hSlim+9+jR5ixvvRQSTztoj1CKeM4Z8aw5X5y3fONf2brVvOKnHmSLl9+k0Ph8fttixZ/Vv7/p7R8OcG44R5Dr2oFM8dFr569duzpROm3TJh/b+JtAkq8dzhnnjvPFeQPC5G9JfDleO2n37c0jR9xjblmEMP41vzOEeZvEs+TIzw8FrIsRD62JF6LlC/nEc57iym9JvBAtXyg03kbkjGdJkyGefXPFvxlzTCx5XTt5xMs5OxFpSzo+OAf5xEM+8SFx8dHyhXzq5fwVK14I621NvI3IGc8ikKel8XLtqPumdDjUfStvSjJ5UlEUJRMqSoqiJAoVJUVREoWKkqIoiUJFSVGURKGipChKolBRUhQlURQ8T+n48ePm9ddf96GmbNq0yVxzzTU6T0lpU5in9Pe//73g/y4qHYOCRemdd95xSxxPPvmkGTFihIqS0qYgSlyDAwcO9DFKOaEzupUOh87oLm90TElRlEShoqQoSqJQUVIUJVGoKCmKkig6tSjJZ5pYK4qSDEoqSgcOHDBf//o3ze23z0wvjz++yqfmhu/G8RRGFr5MEn4LLheIER+wPHr0qI/JDl8xyfaFFUVRWk9JRWnhwsVWGOrNyJEj0svNN0+zIlHvc+SGTzHxcUi+sltVVeXCbfVNNj7nJF/MVRSlbWh3UcI6Eqto5cpV5uDBA2bjxqfTC9x+e5VLf+ihh104G3xdhJm9fIQSq4cv3vK1XHHJWCNS8o03PniZyV3Llle+4IswzZo1y8UB1hN52QfLjTyKorScdhelvn37msmTP27Wr99gvvSlO9xCWJba2t8apnP26NHDWk4j/V75w4csESpx4xAKLCk+KMnHKxGZSZMmubQo2fLy1V7Ej/Llc90IGCJVXV3t9uFDmAhUJtFTFCU3JXHfrrqqQWxGjRrpLCcgbtGixW7ds2cPM3jwZaZfv74urVAQD4SBT3mzXrJkSdqaQmwYF4qODeXKixgB8fJpcPKShzT2wXVkWz4lrihK4ZR0TAnWr99oNmzY6LYLGeTOBi4UwoHVg9DgWsmCJYMlFbVmCskrUA9uXbgPApYpv6IouSm5KBUbXCqEZMiQIc56AQQnuojlIxSSV6AeLKVoftw5RVFaRocXJSwTxo9YGBOSMR5EBjHBYsKa4anZvn373CB13NO5fPNSnzyBmzNnjsuP60d+3DbaoJaSorScDi1KiAgCwNgOC2GmBkycONHnMM6SAZ7MicUjA9VAXM+ePd12rrxMOairq3NjR8AaYZKxpBUrVrgwFpSiKC2jZK8uqawcZh599BH3pA1RYHB7+/btZtCgQea226rcIPjkyZ/wuRWlEX11SXlTMlGaMOGjpr7+qOnRo8FKCdm//4CbGtDSp29KeaOiVN6U9CVv8tQtCtYSlpOixKGiVN7omyeVDoeKUnlTdlMCFCUbPFFtyeRWHmLwkKOU8O+Ctm4DD454ohzCE2fiwiWE+XqcV548k9bav1qpKCmditGjR7ulUGSaSHtBx6aTh/A3JplP11YgLjzJDmHKC/XyZFkWQSYQ0zb+asXT6rgpN4Vw6lz+vVokmDhYUVFhunbt6mMUpfi89NJLpra21mzevNn07t27yRQMOhBz1nDv4jownwgjPwsWQLdu3dynwdiHV9hkcgkpl32YdhIF62LRokVm9erVsfVmS6dcjoU2yLGQ/+GHHzarVq0yvXr1cvlpJ6JI+9iGbOVSJuVRDtuZzkcIYsQ5ePHFF9PTXoAyrr32Wnfscu4ERIwpODINhzrCKTktQS0lpUPCxc9UElwacRfoVEyexRJiHefq0EERAtnmLs8dnn1w0aKuSS4QM9pAW/gXAW0ILQXKzJRO/dgE/fv3b3YsDPXS+VkjPsAxybu/EFQsKfaj7ZSLQAjkJcz+1Es4m9tKvRxLaAUJ1MU549xQprQRSKN+yiadMloNA93FYs2aNan6+nofUpS2YefOnaldu3a57ZqampS9q7tt2/FStnO67UxYEUjnYZt9Qqw1kDpy5IgPNRLuJ5BvzJgxKesh+JgGiLNCl96Opi9fvtxvNcUKmKsH2Id9QwhbQXDbtDNa7tSpU5vUK9tAW62Q+1BzwvKi+azl48oinfMdniO2pa4tW7akrKi5drQGtZSUDg1/ghZLgvEMLAYsDqyQfMCKCME6yfdNpIwzkT/qFtEOLAtx+aLpoXuD1YTFQ5uxmkIrJBNYJ5QZV25oqXBuhNDlikIbso1X8Y4yKzwunX87hPVw7vlbF+lWoNLHQBtbioqSUjbQ8ewd23USxKkorkQWcJ3iOruIWqZ0ATGwhoFrMx0fFysfKFOEOEq2+uJAQKiXMSfaw0LZ4uqxHa0LdzOMi4oZ4UztywcVJaVsoCPRGeSO3pq7dT5QD3WE1g3108mxlrAcoumAVUQ+0sIxrHzbK50+ml/qLQREDEFkXEgW4lgDY2IIVQgWIMcGnOdQ/GkXY3lRoSoEFSWlbMDqkMFWOih/oC4mWF+Uz4IA0nn5E7fE0XlxxahXOiUdPpouHZ98uD2UxQAyAiCI8LBPGC/ElYsLJmKRL7SDNoQLhKIDCKnUg6VEXcAxyHmRdAbLWyNKOqNb6XBEZ3TTeelcgFXCQqeSuBDyAmnhthCWFUK85BfCjidP+jLVmyld2kscaWH90WOJa1umcuPyUlY+YhGXTyw+4qkrCu2gTkQtWm+hqCgpHQ79m0l5U1T37YwzzjD19fl/HklRWsLhw4f1xlfGFNVSQpCefPJJM2zYMPc1EkUpNrt373azsq+++mofo5QbRRUlQJiYv3HixAkfoyjF49xzz202t0gpL4ouSoqiKK1BpwQoipIoVJQURUkQxvx/Or0mDgzzI9kAAAAASUVORK5CYII=;" vertex="1" parent="WIyWlLk6GJQsqaUBKTNV-1">
          <mxGeometry x="520" y="200" width="303.1" height="240" as="geometry" />
        </mxCell>
        <mxCell id="PExKw9lyQx4Q-NcElafL-71" value="" style="shape=image;verticalLabelPosition=bottom;labelBackgroundColor=default;verticalAlign=top;aspect=fixed;imageAspect=0;image=data:image/png,iVBORw0KGgoAAAANSUhEUgAAANkAAACHCAYAAACbOvzxAAAAAXNSR0IArs4c6QAAAARnQU1BAACxjwv8YQUAAAAJcEhZcwAADsMAAA7DAcdvqGQAACIFSURBVHhe7Z1tkFXFmYB7mAEGVwayCWhqGWISSFJAqrKM8mW2BCoKbH6EWpWx1pIoYSBuaUnECq6WIKSi2QiIFfwjiLuSHwE1y1hJAUlqGTfFwO4KWLVAtBiqDEN2FVhlICqfw/bznvvO9BzPvXPvPXPng3kf6nDn9Hf36be7T/d7ustWrFhxxRmGUTIGZH4NwygRJmSGUWJMyAyjxJiQGUaJMSEzjBJjQmYYJcaEzDBKjAmZYZQYEzLDKDEmZIZRYkzIDKPElP3whz803UXDKCFljz/+uAmZYZQQ08I3jBJj72SGUWJMyAyjxJiQGUaJMSEzjBLTJRMf5RUV7rqR17vKIZUZE8O4urh44aJ7//333IUL5zMm+ZNayIYN/4z79t9+233xize4gQMrMqaGcfVx7Nhxt2PnDve///Mnd+VK/mKTerg4deo095WvjDEBM656Ro8e5WbPmu3Ky8tdWVlZxrRzUgnZNX9xrRsz5kuZO8O4+vn8569z1w4d1n09WWvr5cxfhtE/GDhwoLt8+XI3Ctnl1sxfhtF/uNJaWL0vWsgKkWTDuJqg5nfjxIcJmmF0Rkohy3+GxTD6K9aTGUaJSSVk9lpmGJ2TSsgKWZAzjP6KDRcNo8SkHC5aT2YYnZFyuJj5wzCMrKQcLvY9zpw54xr37MncGUbpKVrImPRIM7s4afJkuW697Ta3Zs3ajGnp2b59u7v99jtc8/HjGZP8uW/BgrZ0L1nyAxHYrqSxcY/bsGFj5i7iieUr2uK8/Q6f7ubC010ozc3NbvWaNV2ev/5K+fTp05/M/F0QqJVUVFS4mhtr3DXXXJMxzZ/lK550c2bPdiNGjHAbNm6Uv3c1NMhcCr8Txo9323fscPX19a66erQbNqxK/NELbdm61Z05e9aNGTNGzF7YsEH8qLuDBw+5lzdv9n8PcyNHjmzzg311dbX4mfud74gZ8eFW/VLBMD956pTbt3+/G1Y1rC3uzd4dC/D33HOP+IFp06Z1CB+3pPvkiZPy23T0qOQFSNc2nx81I64dO3e6417gjzQ1uc0vb3ZbfTgTJ9a0pZP8Hz502D322D/6OF7x6TrpZvuy0jgZs6tb4tvv03ym5Yw7dPiwGzx4sIQ/2tsfOdLkmpqOilvNY5i2LVu2yrdS5GHHjp3uqaeedmPHjHXjM/ZGO42797gLF87lPbueqidLO7s4fsJ4/5AnyN8tLS3SO9BaH/KVcblvwbmndacV11aeXoi/77tvgfw+tGSJe8VXPirOrbfeKq3vAt/jHPct/jOr10hlxA8Vb41vnRsbG0WoQePb6isYfgG3hLfa+5X49zSKeQiCBcRFL4w7/v6WD4M0bfTh0+tt9eGQD3oFSZ/vtTFb48PW3hS/y59YLulD2KD5eLP8KlW+sZh2881e4KuknBAI8k+cSx5aIgJD2SxY8D2xI0/Eq+G3eHcIkKbjW7feJoJLOrBHOFes8O4Rev83v7Dbl5WRQIFzEUULGT1Z2sVoKsJy/3Dn3XlnW8V9ZOlSt2rVShEE/v7la69Ka7r1lailrZ03T8ze/sMfvJ+pUmlJBhWUykSFobVGuL4+YYIbP268qx41Slr0qd59HOJa6S/84oeKuW7ds+53v/1NxkVHImG+TXqHuoV1El+Vr/yHDh0Se9IIpI0w6uoWShoRgqlTIzPiIy4EBl56aZOrrZ3nZs2eJQJFHkOIc9KkydIzr1q5SsqCvyVO39ghGGHZ1C1cmPH5aUgvdQRBHjZ8mPitHlUteaAMSffsObPF7SOPLJVfIx0pZxfTTS9Swd95+w/uuefWZUxotaOhGYIVVZ6dvpVvcaP+alRbZcZsyQ+W+Mp3XMwY8ix9+GFfAVe6ab4iU1nnzbtTWu49vjIv9ZVl9qxZboUX6iSosIBAgvZASZAu4kAoGRrSu2j8CBQNAxzyPQXp3OmHXqO8kI+qHuV7j0MiXPScNAQaL4IVEn/vwi3p1zhJJ/le6IVpts8rgkcchE2clBuQNtixfYfb43tY0JEDfrmeffZZuZ/nhbxqaJW8AyqMKIz09NjsolQ8f1FZlPD+pU0vSg/1hB9K0cstWlQnQkRlxazFD6/gtVdfdQd95X3ID3tonamQDBUZNtFzcPE3LfhSLwBUaOIBjY/KyN9U4E0+3v8+eLBDuhR1s9Kng56ccOn1jvmehvgZKmq6CJMh51D/+9y6dW5RXZ0X/HnuIT+8Q1g2vfhiW7zKtKnTJN4N/h1TqfLvhLhZ58PADuFHmKt9OfA373mAcGNP2bQ1Gl74EULeWSlL0k5PhXDhl/SdORsJLu9hlCPvxggxfp9YvlzCMdJR9EY6VDJerBctXuw+99nPZkz7PgzLEGo/GJaK97vf/lYqdCHwToSwr8v0Et0NPTi98X/+x96MidGVPLN6rTt75rQbMCC/PqrHerLeymv+nYYhK70BvWShAgbz7pwnG670FPSIud7LjJQU2C2VLVu2rKieDAZXDnEPPvjAVdWTGUZnPP2Tn7oPPziVf09WWVnpirkYKg4eNCgTjGH0H1gfTpKJbFeq4WIh+xwYRn+laCFj+j7tFL5h9El831JI3beJD8MogkJGcUULmQ0VjX5Ld6lVpYEFVBZugV9VSWLBOK7twOKuui0F6P2FGvlLftD12vV9EX0mPUlvSENXkFLIiuvNWKjdsDHSatiydUubwi4a6KxLqeoUnDnT4lDSRfj0QghEOGICqQ9F3YCaoXLEBdhhjvCqMixmXKxxoTkh9oEf0PswfOBv0hOGjxvyEKYx9Kd/c4XuNL3A39jzG5qDpkPNcReWCb9cYdjZ3HCF6eBvNFjCsON5gTBdpAc3ShiXhqn+9R60TBXNVzwNfZke6clQ46EQ6aXK/L+W0y1t6kioKnFVDR0qmuoIJCpJCOOWLVvEDRroCAL3aGUoqAnB8hXLpVfkQlUIjfjmY8dEFw9FXcwi3cSokWg+1iwqRIS5Zm0Uxn0LvufThMb7FhFG/KEDiBla/qhGKZqext2N4o5v1pYTns/DkiVLMq6oXM2i4gSYExZqVgy9cU/lQmEacEvjE4W1QtwqfHlw8OBB0VGkIkJYJqRXy4uypTwIj7hws3rNaqm8/G7fsV38b/d5Ix2kS98EuJc0v7BB8kIaVTgADX7seV6UDW5IB2h6JP0+fsqcNAG/lB+aKeRLnwvPizzxpYTmlzB6G4W+KqUUsuJnF9GPozdDM55PXij46DupRtG4oEWjgBnKaUHPEe3wKIPSwvnoeSAKYdF6IpgoxKIcrN9L1dbWis4fDxJQiFXNfyrWI0sfkb8V9AXR48MfOpGkC4VmzNCHVEgn8WKO1rp+GkNcEn5QROgNki78ED9pxQ9+uU/6rAbCtAIVnYZHdRi1J6BMsFMFYeJDu58GjEpOWnDDN3L6GcucOXMkjBY/YsCOyq/6jBMmTJA0op0vz8ObIdwKeqTxZwZhmaBziv5lEqh+RXFGoxWeFcJFfDxDnju/vQ06hkJIJWRpJj94OBt964UKENfaNWulkClUlFOpRLV31cpnKgrKvTwwHij2VLw6/6vUzquVb6TQWFfBJCy+1aKX4OHziUqcVatWdVDKTYJwZPjjK4BWYqCxQHA0fD4byQVfCPA1AHmWMH0vgGCgmU/+pWEhLB9mVnyxUzmJD21/0kC5oSTMZypJn6gQH2lTN3f5xkOhN+L7MspUNffD8tPnMWf2nA7CrorI8WcWLxPC5zmiuE1e9YsAnhPPjE90SBcNAY3dwUMHO/SY+CesXkOBfUvRX0ZD9GX0jUV9GY2w8JBmzJguD+nc+fPytTIPcf++/a7+9Xr/sMYFLVmZCAgtbM3EiW7988+7c+fOuRtrakT7BCorB0s/N3fuXDdixEjfEo+XL6Np0Rl64R41MNwTN3aEW1MzUdLDg1V/FKT2gridOWOGazrSJBXgvE/rjJkzpEISZxh+VMHLfNjXSVpJkISXAQ0AKgw9zNgxY9yJEyfdroZdkvcanxfyRlikjc9S+Pr7Ov93lNYI0vtvu3a5SrRufPz0GFTyNWvXShoiQeCL6cwX5T4v+CEMyo38Ew+QBszp7Sjzid6cMkXI+Cr7u/Pnu6amJknjmDFfDp4HlEn64s9s7FjMojIhLhoEBFDjmOHLkrKVRkbe25rdzT4MyhM/hEf6aEwbdjXIMzl58mQs7p6DBvDC+ejLaMobOVC4f/PNN92pU6fc9ddfL2YptfAr3aLFi/qF7iLDTIafgi8xho7FwPsUrXUxiscK7y9UXL4UQBAZNvZm/s6/W/Mx6dXCM8+s9UL/nuguvvHGG+6WW26RxhMaGhrcN77xDRE2GD58uAlZodDb6VCqp+lNaelP8KnLr3/1uggTQuVHgyJM8O6777r333/fffWrXxUz7HtkCr8v05sqtQlYz4IQ6aXccMMNImBvv/22e++998SsR6bwDaOvEy6phLz11lsidAhbFwlZgdMsAcw6RTNP0awRs2xdCS/UpQBtFd6HuhJe/ONhavrDdcC+SqmeRU9x8uQJN3bsWPmbyQ2GiArCxewzPdnXvvY1GVL22HCRBVYWiFngZLaGHZiUcPoWOrsP1aIUFdp83Cq54tFFX2brdN0H+1x+WGwN1/GyQZqYvg796lBQd7+CeFydUUheQ3LlCbgPzTpzr8swTIBcDYz43EgRIOAXwVLoxVie4j2NyRDuU21uWl5R4W4scgqfTT5/tGqVO+FbBaah2ZST9RIqJhuVcjG1zIacbCT68subZWp4164G2WQUwWT6eMWKJ6UnYP9DFqt1Op/pbHoHprpZn2EKWzUU4m7RLDl0+JDMILJexNTy/fff73vaRvHLlP0rvjWO0nNE/LA+RQuNH9yMHDnC3X7Hnb5iN7v165+XKWzWAVlYpdABbY/z5y9I5SctTOMz28iiLyplmjbMly17VH5RVSI95JMNUMO0i3ufT6bEJ02eIu5//OOnfLmMbdtHsbO8MstJugl75IiREi/5Zi2LcPHP9H19/esyhb5//4FP5Rs/TUebfDonuLvvvtvt279Pllt02YEGijxs/vnPJQzdlLavwghMp/DzoeieTD69TjHvgQDIRqb+lzUSoFKgYsMD4WGwZkIloFVnzYQHq7AIjaBhjlv8hPbRDk/Pyk5R9AbYZXOLOTth4RaNBnorBAO3VCgEZpz3w85PCtoqhMOaji5Ok1bCYTs68oLWA38rLLySFtSd0JZg6KkLuiwWsyCLebwHypZP7lEJ46GTNsKjF2EtL3QfDsXDvGovS7p/tGqlqJSxByR2oAvJuKcsCSvMNw2Dri8Sl4IdbkJYK+SZhGXYZymw3hctZGm0PYCHwEY1PFAdGskwzDcO7GvItfThpaLLJ5oEGQ0FHtbSpQ+LKhQVBu0C3NKKsyirsMchD1+GLj6pqBIRT5Jb3gt1iMOvVC7fI1HpVQMiDnsUsqBKeLpmpgKTDYQXoUAtB4Gjt9GNTMlLNnLlE5U0NEjYOAfVNAQ7nlcuJcyrEqZb35FRdSKP/ALCJsLuzQiXC8GjMUcwEVgaTLauw22u97C259JXKXAqoujhIl1leXl50cNFhiwMRxRaYYY158+dlyESD40WcYQfjtBiom3BMAPNkPrXX3c1E2uk8mDHcAZz3CsMf9BCoBV/7LHHZLhIJdmzN2qdw7gZUiJULPI+8MAD0gCg7cDiM0Me3DJ82ufDqx5dLRoY9HQ/W7/e5+OwhEFLzowTWhv0RKKl4YdfhDlz5oy24RpDT4aHaFbs80Pk+fPvkQrHmiNhMAy92QsKWhbEy56OqEBlyydDNNKOxgg9KsJLQ5Qtrwy9ERzNK4Kv6RZtE2+OG8pXh5nrfT5peFCrQkOHIT35Rk0L+x8/9ZSors2fP9/7fVmGkaRDtE08+qzJJ68FpAkNjr46bKRsCxku2mK0h3eG53yr3B+42rQvegI0Ps6etX0XC6Ju4fcyf139rFpZtKqqoRQ4XCxayArZSKS3w/Ctv9Cf8tpb6LGJD8Pos3TX7GJXwguxzmop8fvuICkdPUFc+8PoZXTXcDENzM7cex9Hw06Ro3r4RD38KpjvjvQz/VKQLezwE/nuhtk7Fa5fdLGKmdGzlH/zm998srW11RV6MVwcMKDc3XTTTQVP4TNVzZQ62hA//aefSOVi2n7Xrl2ihcA0MZ8IMMWLZgR/M23NdDEC+PTTT8tU8YH9B8QPHyKydrRtW70sqPKhH+7RRGCqHeEJj3LlqFam0tFWIHym60U7wbdQ2LP4w1Q68WHPtDOaGjrljBvW71SThGnv9c+vF3doW7DgzJQ7WipoQrBmRL7kQ8aMW6boeT/SqX3UzIiTdBMucZHPbfXb3N49ezvk88SJE23lQp5Us8LoHnbv3u0+/vgjkYEk2Yhf6d7JunDuA40H0ULI9GiqvcBCKR8l6oI1u1cdaz7mXtq0SfapYCF41iy0HQ5KBUWo+JgRO4SBMNhagMoI/I4fPy6zP0a1Y5Gbz/F19yw0TtgQB80EBIkvnesW1bXZA0LLgi9CQxw0EqSHBWHcYcan9aQNO80X5vyy3QFrcWGPSnxoh5DPSI8xyid+4/lk27pVP1olhxuiFWN0L62thb2UDeDT6WKvct+TdRVJGg9URLQ72IUqfE9RDQVd7FStDHZFQhkVfwgXh/7RQ6BhkfQlMupJsug9tX1jHPxxCb4sqdSNvuXiyF2F3gShIF28w6EKpSBIIaE2hYTrwyQ8Tg8N400iWz41DK6pU6ZEZka3gRJGkjxku3rFxEc2qLDaUqvmey4QLt5tOEIW6GnoFRC2EHowhlv0RmhLhCpAqCVhj2Isu0ShvYF2Q1lZe1GhRcJOSwgNcQDh0fNxtGw2SB/hEyafsITT6WwSRF7bBDwH9NZ7/BCSdJ05c1aG0PRuRu8klcbHoEGVbvH3S6/xQcXT4WJnxN1S+dGxi5MmTIibpQ0PCgkDCnVvdA3detJmd61HF1KRQrf0hJzTnESxYSpxs7ThQSFhQKHujZ4h5XCxqE6w22DYp8M5w+gyCqz2KYXs6lGtMoy86a7F6KtJd9EwCqWQ+l+0kDHxwVKZYRi56RMTH4bR2xBljDxJ+U5mGP2TgoaLp0+fzvwZbZYf7iFnGEYy2pPF5YX9Fnfu3On27t0rG53CAP7AIcLG5vkImloahpHMH//4R5EZhCkUNORn8uTJbsqUKbLnIrI0gM0ZscAABVR+DcPIDUKGrLCDcLi5aQjmCOIAJFF3Q8VA9+82DCMLec55IE98UjUAZVNAuJBM9u7G0jCMZNjOLuyM4vKCnb6bMXQsr6ioeJI9u7kYP/IxoXaDnYEaf82NNUXtu2gYfZU3/v338unUkCFDRFZ43br22mvFDjm6dOmS3PNexn35vffe+yQG3LCNMuPIfAQMukLIPvz9c27AwEpXMTS/OA2jp9m3/4CsETONj9yogAH3CF5o1qPrZBc/fNdd/OBdd+o32Y+G7eojlSD8ALQzcrmV79025P9lMt+Qxbev5j6+932Ifj1934IF8huH3XwVvisL7/NFNw8K9xnpDD54JS7Szyc3nZEtbZ3lX9F0EVdv2OyoEHpUyBCugX95gxvypenu46MNGdOO6JFKFLJWAgqaPUFAC10eVlD4uFU3gD8u3LBjML8aDm4BMy7MNNzQLb8hxEllww7iFSEePh9t6mHvmHHFv6RWPxqXhqmf7GAf5pV9UgB3tK76VTj2SWXCvYYJ3HOugJTNsWOyLXgYfzw+hS3B+bKb7Rq0IdQ8KWFe2E4hTKtC/vlKPCnPIOny5ggov9u3s3/KFgkbwjgxw30YVm8gpZAVr7xIL1ZeOdwNqBzmhn59rmv5r3/J2CTD7lbs2c52Ai+8sEEObqDg2elKDp+oqvJ20VlnfNW8wz+MltMtbT0AH29GFVrTfEUeGIuKuMUfO1Vx4or48/GFbpMO/2N/fA6loLehpSZt8AsfRnPzMQmD8NkzhB6vsXF3tCOWr5SSPp8f/YpbUT/sS0KaFPyTfuzJK/aaHnpI8hKZb5Q4ODGHe8qGyscRTWylgHDoWWsRV9xQ706/Tdvq00b8bOUAGh/lEqYH2PiHNMhmRb58EFIROi+UpIHtGQhr9ZrVGR9RPrxRBygPidM/P9KqX8PLSEG+Fm+R8iWt8rd3Q5p4tsSp5UucPAPCIt+9hR7ryRCqz/zNQ+7yuRbX+smHbthN33Utb2YXNL4NY28NPt/nGzH22NCWkX1AsGPTGzaq4eggNp7hQAoeBsMR9uGgMhAOZvyyhwaHSnAAA9sQQO1dteKPehC61TgVejB6DT57YCsC9uEgbVREBAc/3Gu6qAAKu1mRPuxmBWHSIqsf7OPfwpEP8qD2xI+g0jgQRwib8uCO8KiUVF5Ox4k2EGrfk0TLgV/AHn+41x4CQeJej4hSqqqGSnqIn/yTPgSDMkVYKUfC0qOYaAgoaw7ECFF3bPegx0KFkM/Ro6sljeMnTJB74iHdbIRE3tUfYRBW0hFUPUWPCBm92Pk/vSVC1frJaXf2YL0fLr7hBe+fMy4Kg8pAgdKi8yA4bYTKTsVgezU21/nUhjYeqZy+J5owPvvW1aqhxkMNhyBs+cauV7SkU6dOkfjqFtbJPh88aPYkoafDD+kLj2CiktDakw4qo8LxSKGf+FG22FPhsUewiZN8sdMXvXdOfKuBX8KlBwqhd0iC+DiaiTJiR6+4IFePHi32lDE9CenQJSHySPrJIwcYAqfEcPqL9sAKPZmWBWHQE0kZ+PwpNCb63IDnzGhGy4pDB3srRR+dBBUVA4uaXSwfMtxV/fVd7povT+9wDbvp3oyLAF85pOXztT16n2HnqdFSiSsHV7rz589JRaOVZa9CzvuaOLFG9kCsf73ePf7Y49LK4k/3TWSvQ3pB3LKXIUJJHBx1xMOSvRDb4vOV8zCVokwesrb4LDLSirIZDhXj6NGjEsY5n56ZM2bKno70RAx3mOKNKmiZHKnEMUcMq9hLkTDG+nQRZ2Xl4A5+aOEBe9LDHo9UXuw5UooWGwvc0QjQ2nNqKelmk6AorWWSJ8LliCjSTXmExylxXBV55BimkSOvi8rLlzvxUWac5kl6wiObgDKm8j/4YHTcFO/P5J9jl+bO/Y6kiWfA9ng8M54X75YIhZYt6eMYKfLE86AMseOe50EDSBpII+tTuCVM9rdkZKFlRRooQ+qC7kOp5drVIPzdeHTSYLdo8eIePTqJdwUqU7wCGB2hp6EH0eEvw0KjODg66c9/buk/QmYUBr0xgmYUT7fuVkVXb/QtTMC6gAK7pVRC5jszwzA6YQAvjcVeFy9dzARj5IvOpHU3TELEZyuN4rh0+ZJMICXJRNI1AF2rYq9BAwdmoi0dLDizX72Sq4IWawdJ9mpGBU3aBju+DoP7zuJhz38dsoVumcBhWl/pLJxchH5ZhCadzMayRqUkhR+apYn/aged3Wg2OFku4leqKfzy8gp3Y4m18Fn/Ybqd9RdW85n+Xb/++WjKPTNVS0ViAZgpambQmGm8/fY7ZFGUqWXR9jjOiSqsu5RJZcYN/pjqJo4jTU3yy1rO3999twg2U+xUNtaVOI6JKW2NE+EnfI5HYrr6W7feJnEwi8fsHWmdOXOGHHPEOpGuHz366KMyVc3ZbEx3Eyd54dgnptFnzpghYbJgvauhQeJ7efNmt9yHwd/LvH/SxrT89+//B5m+J19cLGNsfeUVt2//fglDjnXa+KIsczCdjR3lQXpwQznG88uaF8sATI1vq6/PLBMYIYVO4ad6JysrK/1LGRoLaC9Qiai8q1audJs2bZJKEMKhEmgW6GLnKO+WPfCp9CyY4pe1KdaAWMild+K0F37pXbCnAqrmAGFxeASCxHoMYWCv6JKBaDlIT1ElaSNOtE5IN0NDhDF+4AXwxQOLvAvrFoo2SKRRMlvWnaKF7ijNmk8OVFeNE9IWpiWE45tIB24pMxbMWYtTyB/liRviJo1AmFyyJph5rHPmzIn+MFLRZ2YX0ZhQTQHRUMgi3wyJwhNgUK9hsRllVhaEqbhUMnoQOQ/MCxiaDdireo8SLWIng+4gFZVKnETtvFoRNhZHk45tUkJNFCDtpJn0cC19+NMCqmjpo/mgRDp+kV4hmi5J6DCXXivpyCryTQOAXihubeiYjpRCVnpUZUgqn680KIUm9Q6oSDH8Q0OASo0wAZUd4YyUiSMlWtSfTvseg94IoVJ7DtvDfpwXOmXcuHESN+uCoZoPgqvDTRqAdg2GyI6Kyu9ULyghGjZDRMAv7tC2QGmYCj17FocSbmz7zCUKLxLGMG2ETXmQftwA73aki/yTP8qPBgHIC/qL9Oi4oddk6BrPLzyxPFIQrhpaJWVjFE/Ko5MGu8Xf7/nFaCoMQ53eBu+Fr732auau9CAMDA2z9WBG19AvF6NpnXsbDNuSzkUrJfRKJmC9j14/8ZEP2SYBehIZLmaGrN1Fd8fXXym0aylayKLpy97RkxlGd1Jo11K0kPFOZmpVhtE5Kd/JTMqMfkhCtc+1KXDKdzIbLhr9FzYw1Y1Nc20InErI/IAx85dh9B/27G0Uxd933nlHBA1UyOrr611DQ4NcuOE3XU9mEx9GP2TE50aITuoXvvCFtnMkECh24L7lllvc9OnTZbt77kULX1wYhpE3KGFkA6FSVAvfhMwwCqRySKX8sh23DhcRJnov7unBOC2Je8xtjw/DKJDVq9e6M92nVmUY/Y9Ce6WUQmYTH4bRGUULGWtkZ8+edf936oOMiWFc/Zzy9f3cJ59k7vKjaCHjnay19bL71a9/7T7+uLBIDaMvcvHiJffLf93mTp/+oCBFjFQTHxcuXJCPDEeMvN5NmjRJPm4E4le9Rk1LNj3HuNu4u0/bc5MJNA/iYeaKozA7brwh/3ewu+LvI3OIzCMzdaPW8XsIzdrD/LSfJNr98B8e2uPtGF6Ynvb05gobNIzoN3Ichq/kG0473JR1MO8YXsc0ql0YRuQ3Cqf9vv03ot0eOrrp6BfUH/fU9QMHDrimI++4oUOHyimb+VK0kEFra6v7xHedH330kSRCC0MfQIiaJ9lrAUJoF7rN9nc2NMwkd3H/eh+PQ8knrs7CC9Gwk/yEdGam4UBSPEqucDSMXP5zEU9P0t+Qy07BHJL8JYUHSW7jZDOHpHCzhTFw4EDZNIqrvLw8Y9M5RQuZJuby5csiYFyQLTNxcEcYvZmeTGO2h50GzYuGW2wc8XIptpyS4s8VltoVG1+cQsMZNGiQXAgY0/fxtGcjVU+mGdaLnk2JJ4K/kwpIzSBuB2EYcf+hHcT9JqH+1W/oJx62uou7j7sDvYe4fWiXC3XbmZ+k8LP5ycct90poH3cH6lbNk8KK+wENLyQeVpzQPlu4SmjfWbj5oGEo1GfC07WxuH0uUglZNrRQupqkcONmes+vovfZ3Kl5klkS2ENn4Slx90luk/xBNnOIhxsnbt+Z+zhh3Pp3+AuhmRK/TyKXn2x2+YSbRK7wIFuYxcYXpySL0V2RsCSSwo2b6T2/eul9SJJ5NrdxsI+7yeU37j7JbZI/yGYO2BVi35n7OHG/8d+4mRK/TyKXn2x2+YSbRK7wcoVZbHxxSiJkhmG0U7Zs2bKuEVfDMBIpyTuZYRjt2HDRMEqMCZlhlBgTMsMoMSZkhlFSnPt/yf1ZYbxcRFwAAAAASUVORK5CYII=;" vertex="1" parent="WIyWlLk6GJQsqaUBKTNV-1">
          <mxGeometry x="650" y="450" width="217" height="135" as="geometry" />
        </mxCell>
        <mxCell id="PExKw9lyQx4Q-NcElafL-72" value="&lt;div style=&quot;color: rgb(247, 241, 255); background-color: rgb(34, 34, 34); font-family: Consolas, &amp;quot;Courier New&amp;quot;, monospace; font-size: 14px; line-height: 19px; white-space: pre;&quot;&gt;count = totalActualNumerOfRecords&lt;/div&gt;&lt;div style=&quot;color: rgb(247, 241, 255); background-color: rgb(34, 34, 34); font-family: Consolas, &amp;quot;Courier New&amp;quot;, monospace; font-size: 14px; line-height: 19px; white-space: pre;&quot;&gt;&lt;div style=&quot;line-height: 19px;&quot;&gt;X = minNumerOfRecords&lt;/div&gt;&lt;div style=&quot;line-height: 19px;&quot;&gt;&lt;div style=&quot;line-height: 19px;&quot;&gt;Y = maxNumerOfRecords&lt;/div&gt;&lt;/div&gt;&lt;/div&gt;" style="shape=process;whiteSpace=wrap;html=1;backgroundOutline=1;" vertex="1" parent="WIyWlLk6GJQsqaUBKTNV-1">
          <mxGeometry x="460" y="768" width="300" height="60" as="geometry" />
        </mxCell>
        <mxCell id="PExKw9lyQx4Q-NcElafL-73" value="success" style="text;html=1;align=center;verticalAlign=middle;resizable=0;points=[];autosize=1;strokeColor=none;fillColor=none;" vertex="1" parent="WIyWlLk6GJQsqaUBKTNV-1">
          <mxGeometry x="370" y="1620" width="70" height="30" as="geometry" />
        </mxCell>
        <mxCell id="PExKw9lyQx4Q-NcElafL-81" value="" style="edgeStyle=orthogonalEdgeStyle;rounded=0;orthogonalLoop=1;jettySize=auto;html=1;" edge="1" parent="WIyWlLk6GJQsqaUBKTNV-1" source="PExKw9lyQx4Q-NcElafL-79" target="PExKw9lyQx4Q-NcElafL-55">
          <mxGeometry relative="1" as="geometry" />
        </mxCell>
        <mxCell id="PExKw9lyQx4Q-NcElafL-79" value="API returns" style="rhombus;whiteSpace=wrap;html=1;" vertex="1" parent="WIyWlLk6GJQsqaUBKTNV-1">
          <mxGeometry x="330" y="1503" width="80" height="80" as="geometry" />
        </mxCell>
        <mxCell id="PExKw9lyQx4Q-NcElafL-82" value="" style="shape=image;verticalLabelPosition=bottom;labelBackgroundColor=default;verticalAlign=top;aspect=fixed;imageAspect=0;image=data:image/png,iVBORw0KGgoAAAANSUhEUgAAAh0AAAA5CAYAAACSwpnuAAAAAXNSR0IArs4c6QAAAARnQU1BAACxjwv8YQUAAAAJcEhZcwAADsMAAA7DAcdvqGQAABToSURBVHhe7Z1bcFVVmscXGG5ySRgF0VFuTflgKwk1NVM1jZb40HZV212Cb60o8DIj9ANQpW3rC+FhenS6p4AHhH4KjHbPVE2NwZrunnL6AWhH59oVYHSqvLThptxUggQCgXBm/dbZX7LY2Sfn5ORk5yD/X9Wq7LXX2uvy7X3W961vrb0zruBxQgghhBCjzPjkrxBCCCHEqCKjQwghhBC5IKNDCCGEELkgo0MIIYQQuSCjQwghhBC5IKNDCCGEELkgo0MIIYQQuSCjQwghhBC5IKNDCCGEELkgo0MIIYQQuSCjQwghhBC5IKNDCCGEELkgo0MIIYQQuSCjQwghhBC5IKNDCCGEELkwruBJjoUQQtwoFK46d+28Dz3JCSFqwPgpPkz31kFDcqK2yOgQQogbBQyNq5/5cMa5vrPJSSFGAQyPiXOdu2WmtxQmJydHjowOIYS4EcDQuPyhNzzk2RA5guej4U5vgCxMTowMGR1CCFHvYGxcOZpEhBgD8HxMaR6x10NGhxBC1Cssp/T8vrh3Q4ixBq/HlD8ZkeGht1eEEKJe6f1EBoeoH9i0jBGMMVwlN6XRsW/fPrd58+YkVprDhw+HfPzNm3HjxiVHpaFdleQbCutjHHbv3j0mfc6brq4ut2LFCrdnz57kTPUgN8qrZ7inS5YsGbN2btu2LTxbpdi1a1e4H4888kjJZ5C2I2vyEYYqb6T09PS448ePuw8//NB1dna6L774IknJCZZTtKQi6g0MD4zhKrkpjY79+/e71tbWsgMWgxv5RlMB0wbqGSuOHDnitm7dmsSKoIQZ+Ovd8KiF7GrVR56Tc+fOJbGxJ0vBW1/zNjr4vS1YsCA8ZxgWWaxZsya0+fHHH3fr16/vfwbjttJ+jCb+rlq1KuRF7lxXa65cueI+/fTT8HfmzJmuoaEhGB1nzw68MXLt2jX31VdfuQsXLoR8NeXaJT+wH0si5Sn0XXS9X+53l8/82l0599/uWu+ZJOXrT9e5CyHUktEo82sFxnCVb0/lsqeDH+SZM2fcpEmT3G233ZacHTtQVAx+8+fPd3v37k3OXg8DGwNlU1OTa29vd8uWLUtSagttoa62trbkTBE8GOVujbVxJLcQhbB69eowk4vZuHFjKJ++1yulZDcWcL9oy7x585IzYwtKnOd706ZNyZmx4cCBA+FZoh3IB0Mo/Zvjt8i97OjoCL83A6Nj+fLlwQgB8lEGhoaB1xKPR2wM1IKTJ0+67u7ucD8nTJgQzh07dsxdvnzZLVq0KIxpxK9eLbqZyXP33Xf35x0xzCQrmE1ibPR8ussbHPuSMwNMaPwzN+WPV7nxE2clZ0qDgt326htuz6/eCfGmxmlu9VOPulU+1BtHjpxyjU3TfBunhviC+58Oxx3v7AzxWrBk6bNBJp3vvZacKU/XuW634gcDzyYyXP69b9WlDGsCr9Kyv2OY5OLpYDbADzh39+QQYEQwgDFoZcHgiDKOB0HDBlIGRQIzLcqKMYUYu4xRBHE+8jCjow2kpWem5kqO6ykF5VJG1iyWOoY7G0Q+9NPAOKF8a0vcVspOt91I9zmWR5Z7nPYj2yzi/pEnlh3HBsdWB/IbCjOuwOoejtwrJV1mWi6G5Ssno6HKIo5ckIMdA9cRT8O9tfoIWfeS66qRS0tLSzAyyhntW7ZsGfRbSz+D/B5jgwOyfp+1AGOCSVJsRNx6663BuwEYOeTB0CD09fUF+dSMKyeSg9LgzTj/wfOZBgdcOfdfPv1Hrq9n8HMWc/joqaBkt27/J9dy/zfcsgebvTVTcKuf/anb+MKOJFf9MP/+le7NxDiC5Y/9uVv1ZG0V++OPeWPhyW8nscro6up2+94+GP7Ov+cOd+DQx0GGu3/xr0mOrxl4OqrY25GL0TFjxgw3ZcoUN2tWeYs7TzZs2BAG0SxQjlmzRAZkBtzGxsYwUJKHgZFz8cBvyvDgwYMhj5VFPhuccA8zKDMjxV388MMPh/MGeRlUmclzPe7pLKUBlEH9WYoARTrcwZlB1a558803w4BP+6wtsVu7ubk5yDI96CJDZEPbgLZzDX1FduYej+8BZcQGRAzl2RJGWnYcgxmEzI6pg3ipewzUFRsdxE3udn+RO2VWC+XbXgp7Fnh+OBcrVdKpm2enlIzIw3V4t0gnAEaDYfIgxLLhWmQYQ7+4t9RDWciN+tLPmRmL1FvJ8zgcqB+PRhpkY20vBc+TeUJqycSJE4NXI1424diMEAwOjjFECBxfunQppI2YMJiX/xbHxaOvDlpGaZh2nxt3y61JDE/IBXeh86fBI1KKzT/5O3f4yEm39zc/c20/f95teWWt2/svf+u2vLw2zN4Jxn6vVNckxgjHBsp22/Y3rkvHmInZ5ZVvVhreld2vvxU8LWbkUA7H5I+VNm2FPb96t98r07x4kZuZeD2AsuNr47q4/sChP7jNf/3aoLJjWhZ/wy2Ye0c4rqRvMXg3kGPn+68Hbwf9Bsqg3dRt9eJNsbaE+5AqN10nZdAesGOu5xiGKi+r/XH+qowjPlQ3XPwgctPhB9WCH+gKXrEWvHIp+JlYklLED6ohHbxS60/v7OwM+Ts6OkI8xivdgp+ZJbFCOLYyYjjvB+skNtCWNNwaP9AnsSLUz3naHceN9vb20N4Yr8AGnYvJSqdcznklFOLUZ3UayCS+jmOvsJNYEfpqfUCm5EmXY3XFMo7LjaGvXoEnsWzZUU98HyBdZ0y67krknkW6bTHU4ZV0EhuAtvI8Wbk8Q175huMY6o+vJ54m7gcgF+QTY/0wSt0T4pyP5VCtXGKy7k0p7LnM6iu/H9KQXZa8akFvb2/ho48+KnzyySeF06dPF44dO1b44IMPCmfOnAnpn3/+eYifOHGicOrUqXD85ZdfhrQR03ukUDj/2yFD7/G/Kpx9e+agQNr5jgcHne/56C8GlWGBe7j6qUcz0+LQ+tLThabGqYUN654I+blu6yvrimkvkjYtpC9/7FuF+XPvKMyfN6dw9nh7SPeKuP9a0rnWGzkhzcqydK+sQ3zZg4v78y57qLmY98li3mUPNhd27XgunFv20OIQ55hrm5oGt4PzpHMtccomEG998ZmQFgfaZGWW65uFzvdeS8p7uv9csa5iOVxHessDCwvtv2wNbSK9VFuRd7GvRTkU2zCtv3zLz982Lwsrj/zkidtJGmXRLwJpnOe+cGx9bP97P2Ykba8oXHo/eWgrJ7eNpCyx1Hyz1QhhNpvl7SDODDENM1CbQaZh5kc6s0nDD7DJ0QBcG+cZCmafMX6gDSGeHccwW6Rs2mF4RTHIJZ2GmTh7Qywwk2b2iGwAORFwwzOzZHbMX/MQAHmZ+RqkEUyO5CedcmLoD9eSXguQgXk3rH3pOsuRvvcm97i/lUJbuCdZ98AbBqFc5Ap4WbJm7eSJrydOmXjd6Kd5G9gUPBy4nnLT8iHO88yzEzPc57FakDOywfNC+Wm4P97ACoG21sLbkgbPBcsm48ePD14/vBh4am+//faQzt406mZc417gyWXDaU1gE2kZrpz7n+SoMq52v58cXQ8eDvCKJ/wFZr2PfPe5/mAz49afvObadhY9Ifz1isqfK3oeAI8I+yra/2Gz2+rzUPbhI6fCUggzfNK4lnSv+MIM2/AKrz+dtrCXYtfOH7kNP3wieA6Y0VM+HgRYvfJRt2rld8JxzJpn/8Y1zZjqzh7fE+rBe8Nyh3kCwCvl4MkheIOl32MyFHHf6Lv1LYs9v/73fhmSb/VTA8s0y7+31HW8+3O3/PtLi14bb893vvd6KLfj3Z2hrcib+pA3cqKdpHuDIJy/Dq5//3Uvj+/0l0f+TS8901/etu3t4S+0LF4U2k9fkDnleSMtyNIbIaF9w6Lvq+SgcnIxOnCJszGL18/qDQZ5Bk1TKAy0DHRZBgODetYgCAxApJVTTOkBfiiGk9eIjSjagiJLL9ukod02iBMYZM3gAMrBEDHFx3JKWjETR45m8NCG2GXOwFxqkyX1k14LkBkbEmkzSxUopHL3pFKqaSPPfqlnBuK+006MvnIgW/Ihb2RqS03DhfpK3RPKT8utmudxuNh943cZPz8x9lujz21tbeGarH0oI2Xy5MlBPvfee2/YPJo2KmbPnh3OI6t77rknOVsDCuUnZ8N9O6WvJ9sgReEAbnaj5QH2dSwOAWWPwXHw0MchjY2S46Z/O4RWbzSgtNjYafiZdfiLQgPSWc4ANnzatSw52DIBUKddS1vWrP2Za1n6l27DC68GxQ3nusq/TbLv7UNBURuU2bJ4YX8bIDaw5s+dE9pYCdY+u77UdV1d50ObMX527XjuOuOo5YGBT4nT/2UPNfffA2SGgcVekINJe+NNqORNE587fNQbQv5emYxn3r2iKP///UNYLtqwbkWQJ/dh247iCwJbXl7n29vtFnxzZbi3lcpigL7kb+XclK/MxjCAxYqaGTezrCzImx6IDc4ThlIweWBGFIoMg4OBu5I2kcdCGmSDEYZBQvnIJ63kTI7s/7C641k76aVm4qVkWi30AWXU2dkZ6h3JfoyRwt6NofpHGm0E/tLmocArgmFMPjwB3ItSyrkc3EP2HGVB+ZU8N7UEWWBwYMDGRq9RyuijH7V8huz7HMggHTiPdwPw3GKgE2eTPHtA8iLetxFz6eQ/eoPkdBIboFR+FB2zfYwAW+df/8MnwkzZlCEbNRsTI4LZcOH8b68L8+YNKPEsqIOQvo6QBZ4HFDKzcbwCrb4tlYJBsO/fDiWxIoePnu7vSx7E3oksb4wx38vNZG5gOGAINXsjAfZ7I8pI501TNFqWDpIxHhLY8sq64EHifuKhwsDAGMFTgkcImeMVGW1yMToYeJkNlJpVjTUoR5SkKcz0LN6w2TwhDTMtFLMpkLGC+lFEGE8E3OQjhQE97fnJMiCQIwoRWaSNHeLx8ouBvDlvhh7tp760grEliHJwD2MFRL21VEjDBYVIn7KWj5AV/TRPFIo2Kx/tRxnz3KH4kGv6Oct6JsuBhwTZZylzDM1SxvdoYH3kN1ZqORBvW5Z88K7VykDCM8WrsCyn8G2OdOjt7Q1eW4yNixcvBmPDAr8Jzo+YceVfuy31GixvsmR5QYZ6bbZtx/NeYU0Ns13bgMjSwIYXdoSZNoqTGTUKasnStWG5ZPcv3grH214tr6RWrXw0lM9MmmvZMMpsO/Z0xJAX9nvjgfwbfjz4VViuzbp+/bonwvnixsi3+pc4trz8bJKjftj04jPXtXXFDzb5+CHfhxXBgMAzsdXLinRkRl+Ggr5jsG388Y4gN5aviq/+dofzeD6QqYs+KMl9YDnnXOLhaGrMNk5LUsXn0HPzdLBGyvpoPcIAjnIilBrwgHwocXuNkVkiAw0zaRQIs+vhgiHGgEtZtVKOKBP6wUBci8HYyqONKCgMgKyZKPJByZIWezkAuXEtioXrkRt/iaN0zdCze5HOZ/2JIS8yI4/JDqXM/SFOfSjVtFdmtEDx01YL1ia+dUL7UeT2zHDMc4O3gn4AMqMMloTivpuM6AeyIY8tJ5CH/GnDIZZNllEBGBWUizJP14esSxnftYZ2Uif9s/tuITam+H0hRwwP5Eg695r+pfebVAvGA2PVwoULw5JJOnCe/Rvkmz59elh6ITCpmjp1avgekb1WWzXjyw/kExr/NDm6nhn3bXcN076ZxAaY+EelX1lm2YCZLjN0XPvhbYtCwSvFp92uncU9FND+y9aw5MIsmf0GHNtrpfPm3hHiBp4R4ubloHzKxJDZuv2NcB1LKsC1GDQGs3Xq5hVe8nJMWY1NRWOEOMra9mm0PLCo/3r2gLTtKBoatDHscfB129II5VCfUWz34GWLuE3pvoH1LU26/Bi8F3EahhxeCGsryxy0lf0egGeCvpK+73cHQ79iKC9erqE88hw4+HGQ877fHXAb1hYNGGSKMYNM9/zzO+HNJM5zT7nn5Of+r3qqtGcmE/4J3DDJ5eNgzBpOnDgRfpSsg441GAjMaGLFyGyJwSz9MSwzRGLFxUCI0rABkTwoVVMegEJhIEx7CKgbbBbJgEle6ievGS4MvixnpInbw2CNwsnKx/ozdZUbjOkD/S5nMKG8UXS0lzZQLjJI101ZeI2y2gS0iXJoO4oNOaSVG3VQNjKx+rhXGDNcb3ImzQwMS4e4rZTN+fjexFQqzzhfFtyvNNRt95my7ZmhXdxr2pwujzSTEcfIiHzUb1g7TYakUy5l2vMW5zHZ2Ll0/9L3BEOEvsZU8jyWg+cCQwFDK4bzWR4MoNw4P23k9zLUb69aWC7BaJ0zZ054zb8UjB2nTp0KEwa+5WHwLaLPPvssbEDlNdqqueZnnRf/I4mU5uLR7eErpDHjJ852hb7u616RxcuBMSJuLOx1XwwPwNuBcYBhkrW/Y0yYfJ9zDXclkcrIxegw9yOeDjZeidGFJQaUDANo3jDjQwnlNUsWolZUanSw54MlmLRxUep8VVz8T298DP2P3vgGR/fHrSU3iQIGx7RFm4IxIm4s8CixRMJ+FJaceFuGJZnWl4pGSF0wdam3IqYkkcrIxejgx8ysDbfktGn5bei5WWFWmuVBGG2YxVLvWBg7QoyUujI6KvwMOvD/Vi6f+c11eznYODpp1nd9eMwfD3w4S9xYsLTC2yfsy2CDad14OGDCnc5NGryUV45cjA6RH7ifMTrS/8ciD3Dd29dJhbjRqCujg89Ls8RSqPwrp309nWFZBYPjlinlX70WYkRU4eUAGR1fM/Ao2V6AvMHgwdDJ29gRohbw/1N4Jfauu+4Km0lLgXHCGywYJ3G+Sq+vGD6H3vP7JCJEHTFxYTFUgYwOIYSoV4axzCJELjTMcm5y9cs8N/3HwYQQom4ZwYxSiJrDK7JV7OOIkadDCCHqHXk8xFgzYa43OO5NItUjo0MIIW4ErvU4d/n/ins9hMiLW2YWvW38rQEyOoQQ4kaC73f0Hi0aH8N4u0WIihnX4FzDbB/urJmxYcjoEEKIGxVerS3zETEhKgZjg//9U8X/VKkUGR1CCCGEyAW9vSKEEEKIXJDRIYQQQohckNEhhBBCiFyQ0SGEEEKIXJDRIYQQQohckNEhhBBCiFyQ0SGEEEKIXJDRIYQQQohckNEhhBBCiFyQ0SGEEEKIXJDRIYQQQohckNEhhBBCiBxw7v8B+aZn2F9XdIYAAAAASUVORK5CYII=;imageBorder=default;" vertex="1" parent="WIyWlLk6GJQsqaUBKTNV-1">
          <mxGeometry x="8.909999999999997" y="1820" width="332.19" height="35" as="geometry" />
        </mxCell>
        <mxCell id="PExKw9lyQx4Q-NcElafL-84" value="" style="shape=image;verticalLabelPosition=bottom;labelBackgroundColor=default;verticalAlign=top;aspect=fixed;imageAspect=0;image=data:image/png,iVBORw0KGgoAAAANSUhEUgAAAm0AAAA3CAYAAABegX0GAAAAAXNSR0IArs4c6QAAAARnQU1BAACxjwv8YQUAAAAJcEhZcwAADsMAAA7DAcdvqGQAABYbSURBVHhe7Z1trFXVmcc3E5tIIm820SlmClbqSwqj0NYPkJRLZhKbaZVL5kO9+EGd1pdkSISKXybpADadpMUWjU6C2BH9oHQ+tLzUSTGZ5N7blCbFF9RLp1JpBQRmNFEUGv3QJmfWb539XNZdd+193u89G/6/ZHPuWXu9POvZ6+z1P89a+zCj5siEEEIIIURf81f5qxBCCCGE6GMk2oQQQgghKoBEmxBCCCFEBZBoE0IIIYSoABJtQgghhBAVQKJNCCGEEKICSLQJIYQQQlQAiTYhhBBCiAog0SaEEEIIUQEk2oQQQgghKoBEmxBCCCFEBZBoE0IIIYSoABJtQgghhBAVQKJNCCGEEKICSLQJIYQQQlQAiTYhhBBCiAog0SaEEEIIUQEk2oQQQgghKoBEmxBCCCFEBZBoE0IIIYSoABJtQgghhBAVQKJNCCGEEKICSLRVjNdffz177bXX8neNOXbsWEv5hRAXF//7wSfZK0c/yE67VyFEfzOj5sj/vqD58MMPsw0bNmQDAwPZnXfemaeW89hjj3nBs23btmzu3Ll56vSyatWqbOHChdnOnTvzlHLuvvtuL9yGh4fzlM6hzhj8Mzg4mK1cuTJPESH4bGRkJDt06FBXx9KWLVv8eGh2TPczvfJRp4yOjmbPPPNMtnr1aj/GiyDfo48+6u8Z2H/TTTdlmzZt8tcnBXU+++yz/vNpn58HHnhgyvqOSNu8ayx72Qk2Y2DJldnGweuz+ZfPzFP6j30HT2VfWnR5X9soRK+4aCJtiDZukuvXr/d/N4IbKTdgynz00Ud56tTAzR9x1q/gE/wTwkSFIEZEXAggIPbu3Zu/6xz81cy4axVEDkdVYJwwto8fP56nnMd81As/tQP2MA4Y14x5otxFMO7Jh+0Itbvuustfl6VLlyYj3eSnbhN25KcNfDNV/b/n3w96wTZr5iXZwOIrss84ETQy9m52r0uP6ZdonAlNbBHiooRIW7v86lcHat///tbaiRMn8pT+5e233yai6I/NmzfnqcXs3LlzPL+7eeepU4O1ncJNDDV3g8/fNYa8lOkm2OYmmPzdebZt2+bPDQ8P5ynVZeHChck+9hutjofpxgmZaflMtcqhQ4dqc+fO9f5lPPNadN8gL31y4itPOQ/l4s+f+YDPS4jdo9yXxTyld+z9zcna0vW/qG348Su1sx//OU+t1b71xG98+nMj56/P9v1v+TQ7tu7+XX5m6jn1/sfehn3O/m7x5smPfH3hQTtTxfAb/1f72sMjtdNT2GarYN/wG+/m76YHrgl2vHnybJ7SWzb8xyu1rT+bvrFeRNuRtnfeeSdbvfofsx/84IfZunXr89T+x91AfQSt0bdZvgnz7bcM6iAaw1H2LTyMKlgZoml8k48hr0X2+JujyNZGdaUoqw8anS+DKCaRA5Z8YvCP2RrTqE3OkSfG+t+M/4vqj+sO39vfqbLWn7J2Q6gjridut9Vr2Q7hdWimHewqu3YhjfoQ+pLzsW/5O/RJTDO2x3U0a3sM43j37t1+WwH3jDLYRsESqBN1ecp5WLYm4hb2ky0ELAHzeQmhDtpNRea6jUWq1q5c6CNtxn23LPKvvz911r+yFPnk/qM+z61fvspH454fPeaO4utUNUbG3ss27RrLtrt+cvD31787mj354tE8R285+8lfOopgnvvkzz46Sj96BfbRznQzlXb8yV2XP/VBnyeRi7eWGRs7XPv0p//aH7fdtiZP7V/sW6y7Eftv0GXRNiJdRFqKogJnzpypuRuuP0dd5OVvXlNRJku3MpafI7bD0sMjjPjwrZ3ICt/GrW1eyUf9MXGkjbxlkRnqaxRhim0KGRwcnNCe2Rn7ieiEgT2cLyLuA/7Hb6l6ub4xZX2Ko5rUy/vwiNvmPe26Cdafp8+kl0G9YT2AXc2OiyKos+x6Goxl8lo72M/flOWzkaLIx7EvKZ+qOx6PYf/sCPvJ3+SJKbM99rt9dhlfltfatfR2oP2ia0L/i3xYdA8pAhsbff66wb8+94aPWL301vt5Sp2X3XvSN7nzcE8eebPoBlEp3hORm0qO5O3HkTZL74Ttv6hHEkO2/ux/fFrsn15gUc92I229iD7G9Lr+ZrB+TsU1Aca+fQ76ibYjbYsXfyF7/PFHs/vuu8e9Ppan9j/uJu6/4RJtK4IoW9HGbr4xs09lz549/lu4mzQyd8P2h7ux+z0pnIuxvV6W3/neP+DgJgL/Td0g3U08439zxLZQP9/erV3qpIy72Y+3UwR9p3z4zd+gPBGMTh4mIErgJp7xv+kfvg5tZcN1uHeH/vE3fYrBHuzCboOypBEJCf1PPWvWrElG+pqF/UX4nD7QBn9znQ38i020R7SEV/pJ3nZodlx0AtebsUkUx9rhlX7h89Q+KvwY+5hXfOzE0gTbeMCHz1WYD99QPhyPnLNrjA/pK/4uo5HtfBZTY5n9YnwmrAwHNvZizxhjxcZ8DD7g3IIFC/KUNNiEH6Ho3tNNrrtqln/9+Uun/KuxL3//xUWX+1fDNv3Pmvkp/+ol9xRx5NTZ7PZHDkyKfFl6L6J+RCDh96fO+VcgOklEiyjc0CO/zp7/5cR2iQI9sudNf56DiF0cQeM9e/KK6hgee8+3ET4cApZ+7pO/5Cl18MGDTx/yf1NXvB/x+V8eG7eZ158fnHi9U+Dnsj4AdoT5sOFI4Ku4LeqI0yxCSF/Dv6mLOvFPI3uxo5HP4+uWiqCaf8ljdvQrHT2IMDT0jex733s4++xn/yZPqQY8oQWpyZ2bLBMKE1MKm6yYNJhMDG7MTBKICyaM1MQQP4VKXtpJibwyqIPJNKyLehqJUbC+pwQB/qCeogmoESZobCJmomWyZBIyW3nFD2D+x48cKcGJndjDk3tA/2gj5X+EDj7g6PbEbFAv7Vp/aBeBQpvt0q1xUQRigPridugHfqRP4XjgM0DbsY8pi4+pB8FlMO7j8ci1b2Y8NqJV24HxQdvx+CA/dCLqWwE78CU+KwIRefXVV2fz5s3zPmcsTQW33lxf6mRS9BPZ/qN+suI9Ao3z8MVr6uKNhxY49+1cIPTyyU0m3XDive6q2dnAkiu8jTbhHjl9ztuLHZwLCYVWu9gSnPWTSR0ffGbezOzBweuzoa8syJ4bPebTjEf2/C47cvJsttad42Dix0YTWvTJHv7g/K1fnp/tO3gy2xGIiC8tmueFWLzUuePFt3zb4VI2YN/XXT1w7fxZ7u/6dQMEDD67dv7s7N5bFvnyPi0hWgzOs/w9sPhKXwZxTh9C6AdimfFAe/TlsksvceOongbcHewLANBnjjANnyL0eBIYH3H+wadfzT7v+kHb9Ad7SE9hdvDwjPkc3zGeTUDyHp+bD5ZdM68+jtxh4A/avezST/k8jHnapWw/0vHTo2fP9mfHyuDmz0TADTWmkXChDBNC0XkECxMJ+2hCin4qgKhWq3tYmBBTMEnRdtm+IOt7PJkywRC5aBT5MCjPhGMHkw5pTK6hb2yixS72F+FfDvKE/aZd2o99wUQWTnqUxZdl/odeTcxcL2wK6w/FRKt0c1ykYByGQjoGP8biir6VfQbIz2GE/Wfs0ab5h+veLu3YbqSiVdhJmU5sahbs5nPB9S2LnNE3E718rokcUrbXEDF76p9v9sKNyYmJi8mRCWuHSzfWrlzg87DHjYmM12udiNq45oY8R/dhAt0RTKqwZWiJa3fWuChAWAC2hgKSCZyJPIz6NAt124E4pV7aBAQZE/qWtUuyVUuuzG5zohb/4Q8TFVuG/jZ7at3NPkrHwXmEBTYBPp7hXrHZ8vxk4wrvX4Prwt5BIqAm9rg+9MeEdAj5sQcQP9gF7EWkH5udTRvXXO/TsR3BiWBJCSHspMzGwRsmlEGghoT9uP+ri3w/yIdoIuqF3asWX+EjXNaHF1x/8GWYNnL4Xf/Ucsi9t3ze12lt45sXnE0pivxJO0QzAcE/+m9/N96fh9y4Zd+mRTi5PviDa/ujby71ee5z7XPt+pW2RRub5Zctuzn73Oeuy5588qk8tToQcUIk2HINjI6OlgoXbvbcUG+88cY8ZTJMDNx84xtv2cTe6iTSiUgAJhHaDPtOlAvRVzRRx5CP/HYg1oiqhZM5IDxM1DGBIXo5Yv9QB/0Kxa6JaouyAfUVCR2wibkbgicFYoaxQz+JkBBV7WSS7ea4SIEf8EfZdcX3tGVinzKktQLjh2vM2Edkc+06jRS2Y3sjOv3sNAPjgTFPWwiyMrCfgzGNcOOVslMBouS/vrPST3qbnSjatXG5Fx2hCEIUkIfzTHb8hhsTWhzx6SZszI8JRWb9/SWTBBtY2XY2q7/0hw+8MEWgzZ83c7x+hAY/ecJhURoOBA6EUTGEBJGelf/y336pLQRRRAQrtvmOSBQhzrDf6kdgUAZR1iyISQTLqigKiSiBVDQSIedFY57HuMOJofB6e+E+f/akfvAbf9iNEKIOytAH0qgbMUgafiANv5ngNGzZ3rjKtXHK1ZeizJ8IXa4XYI8tuS7bsN9fIxsf9AViO6iTLyf9SNui7fDh32YnTrzj/9616z/9a5VgIuBmGS7JMdGURRhsEp3q323rNkysYd+ZZOh7LLjKYHJB3NqB3+IJ0SYv2rO9RSxRcZAWY1ET8zPRGuyM620kZsjfy8kZUUJf6DfCoui3uC4WWMJk/Nj+N5b4uMapCNiFTijY8EGr45AvBNTR6/FEtAMxwkG0gsmRp+UsLcYiEEQzeinYyjDhxrIZESRESTd5yAlSRCHt/Oiby8bFwGV5f0mPWfuVheP7/2wJmcjUro0rshec2I1J+S6ul35R5/DheoQOwWNP9TaLRbNirC0TLSGUaebaIoxnJ/tRT6Nu2kH00AfGk4lORBbvWRolLV7abpVG/kSwsbzL8i1fPLgmfPEwTOSX9aff6OhBhOXLl2ezZ8/2e9uqCJOuRdtMuJBWBGKOm3DZDdVuuClR0k9Y37GXV/oWRrS6AXuN8EO8H6mIcK+h2RVfD+xsx/9FQq9dAU5/EKoIFNpK7cfrB7ANn5QJXfyFX22zPGUaRcmoE6gXcUZECYHdTbCnVdunE2y1KFm8xy+EiH7ZGIZGX0zahYmZSBKRIERG0UFUwjb4M/GxX4k0Dr8Hzkcr0sKglzDR/+ShFZMiSN2AyR5RiOj49tOv5qn1NpnAERgI1/BAxGILZYjaIAwQuCb4QhAxL/9hsiAO93kZiDTEDZE/xDRRrFYgYkW0iWsXQnQKTGiGUIb88dJpPTJ2/lqz9Dl8+L1J13/EpYGJaZZL6QP9s72RdTH6XvaK84OltUuZP/E/ArwerZzhl1pT/4uGRS9ZTg7BD+0ssU8FbYu2OXPmZPv2/TT74x+P+CdIqwiTjEWcOPibCaAMiwbZpBVDPb0QQN2GvjI5I5CwuWyzdLsw8aT8ie9S/jMhhGDAJqJ5cXnOI66L/E9/qCd8ApY6ikRIK0t49Ae74gkVP/Zqku0U/ED/sTsFfmQ8h0vOLJ/jlyJhgRhnaZg+W795H9OKb1NgE9eyke1le8amCvzAE7dAhC017g0+a/akaIxtDygr3wmbdr3hxRgihL1TqYPJlEkLcUdeBAnv7fB74PYf9eLuQoNJHeGF2ECYAmKOiBr7pBAB9r9D4B/zAXnwKcIFMcNh5Q0TYuyX45UlSupI7S9DTFAf7bHvqyzqY+d4OMOWBFmeRLTYwyW0xT5ARCDXOLXUamWsn1Zmu+tH2D5ClUcN6Lv1g77a3jDLa30Il0FN4FJ/vAzbKkTMEMqxP6nbIpPsb6M9W8Im33PBE7tcb8Ql9jPWqYO81NmXv9Hm6PhBhKpjEadGUTaDaBA3VL5R22Zr4KZty0REljrBbtgmTHolCBBATCDUH4qcbmGb9vGvYZNbkehiArbrYZG3EK5Rmf/pT/wwhNUZTv6Wv8y3ZrflQUCQFu5j45U+ItymC+w7frz+Q8zhAdhMFAxxE++/I+JjkaFw7DMu8Fn88ym0gw/54kJ+6sbPHLHoR9jRZgxf9oDlZSjzP/UTsWpkeyvL+r2APmAL9uHrGTNmJK+FwfhEEIefg9C3HOH47RZMWExITFQvfMd9WV27JHmwr439bcBkVt/M/ffZq9u+6g+WmJgMmTB78XMb0w0Cw0/kwb41omo8KYmA+dp3R71gOXLy3ISlNsTe8Ni7+X62Eb/vKwQR88N/WupFL+X9AxOujqKlT8QV0HYZdVG5wAssbCNCZFFDexKStriWQ058Fj1Ekiqz7+Bp/xDIZe6cwfhh+XfWpZeM94O2Hxy8wT9EYFAfy6Fgy6CkEW2jjpRwbAXGJfsOT7//8bgdXC/sMEFo15LIKfvZtu5+M7st96uBP+rC7S1fB19s8L3Z3nfUOmD79h21deseqNR/Y+W+Becp5xkYGPA/ahnjJmhfxt1Y85Q6Z86c8T/syTkON7n4V+pJ1U/dToTk7ybibvK+bAj1U4Z0XmnLoI3wfUjKXvJSJgXtkL+oviIoU9SfGDe5j/eDA1+5Sau0H04A+bxluInN12t122vK/2B2hPmpw3wWg41hXnwFjCPS6Ie90hc7X4QTNZOuA+VbGRcpqJN8qSPE7CYdm23M4oMi2/GZ5bOyvDohleeoU+SToj6YzeQdHBzMU4t/XPdQ/kO5lGlkeyO/0TbttEpZOWuz7IjHZXg97KBf+LxX2A/GNvvfEfFfXJE/9d8G8QOnnNvw41fzlO7xDw+PtP2jpvZDtb38AVZ+5DX8r79iON8IypfVAfy467ceb/5HjMvqbMamEOppth+t1t0LmrGjGTv7oS+NmME/7obRMgcO/Nr/N1awYsXybO/en/q/+xm+1boboz9C7Nt+nA6UcTfX/N1EKGdLSOQpylfULlAHR6osUR3KcM7KltkKsb1l9ROtcJORj3oU2Z6irD8pyM8BRKQoV9QP0tnYT+Sm0bIXec3/1NMo2hXmNzsg9plhdnMuPk895tdmfEdey29QNzbEPoBU/hSWL0WqrNkNoQ/KYBxCIx+n8hX5tmhsl/W5Gdsb1WHlU2XLKCtnbZZBuVRZ+mTjoNnr0S6bnh/zPyVBdKKZKId/SvLFo8n8LJOyv42oDJG5bkLUhGUqoh+twn4pIoBEBsuWFPsdoqL4gShXp8uI4sKibdHGBu5rrqmHhm+//RvZE09cfE+KVR1bcmIPTr/AsijLRAhJIUT3qIpoo24Ei+3PagWEGr/1dcfK6X8wpRNYnkS4pZ5AFRc3bYs2GBv7bXbgwIFsaOj2bM6c/vxNE5EGscbmcQQb0bZ+AZuwZ2eD37cSQrRGVUSbEKKYjh5EWLLkC9n9998rwVZBiGaxhNRPgo0oG2KSTe5CCCGEmMhF//ToxQr7xfppWRTY08PvnhXtRxJCtA9P7IWvjSjbE8Y5jmbrEkJ0h46WR4UQQlQHljVbEVpl+e3HVau84V+IqiHRJoQQQghRAbQ8KoQQQghRASTahBBCCCEqgESbEEIIIUQFkGgTQgghhKgAEm1CCCGEEBVAok0IIYQQogJItAkhhBBCVACJNiGEEEKICiDRJoQQQghRASTahBBCCCH6niz7f4EEjIfZYbB8AAAAAElFTkSuQmCC;imageBorder=default;" vertex="1" parent="WIyWlLk6GJQsqaUBKTNV-1">
          <mxGeometry x="199.99999999999997" y="1980" width="338.73" height="30" as="geometry" />
        </mxCell>
        <mxCell id="PExKw9lyQx4Q-NcElafL-85" value="" style="shape=image;verticalLabelPosition=bottom;labelBackgroundColor=default;verticalAlign=top;aspect=fixed;imageAspect=0;image=data:image/png,iVBORw0KGgoAAAANSUhEUgAAAhYAAAAzCAYAAADLuUF/AAAAAXNSR0IArs4c6QAAAARnQU1BAACxjwv8YQUAAAAJcEhZcwAADsMAAA7DAcdvqGQAABTUSURBVHhe7Z0LsFXVeccXj4sSwkMypVPQgFPHoYoiSaODnYh0asAJRG0SsSYZH/XRqc4o6qQTbAVsm5mYpOJMMyOaAZ0YDRGKjnYAbQdoolaSBhVfrc4ojZApM3hBQJQLnK7fuvu7LBZ7n7PPYR/ulfv/zV2zz957Pb+9zvq+9a21zx1Q8zghhBBCiAoYmB2FEEIIIY4aGRZCCCGEqAwZFkIIIYSoDBkWQgghhKgMGRZCCCGEqAwZFkIIIYSoDBkWQgghhKgMGRZCCCGEqAwZFkIIIYSoDBkWQgghhKgMGRZCCCGEqAwZFkIIIYSoDBkWQgghhKgMGRZCCCGEqAz923QhhOinHNy3zx3s6gqhduBAdlX0JwYMGuQGdnR0hyFDsqtHhwwLIYToRzDk79+zx+3fvTt8FsLAyBj8qU+5wUOHhs+tIsNCCCH6CRgUXbt2yaAQdcGo6Bg+PBgYrSDDQgghjnMY5ve9/747sG9fdkWIxgweNiwYGAMGDMiulEOGhRBCHMccPHDAfbx9u/ZQiJYY0NHhTvzMZ5oyLvRWiBBCHMd83Nkpo0K0TK2ry+3buTM7K0e/8ljs2LHD3Xfffe6SSy5x55xzTnY1n3fffdc9/PDD7qqrrnITJkzIrh47KP/UU08ttRZ6zTXXhDrOnz8/u9IaDz30kNu8eXN21g1yQl79DfrJE0884dauXZtdaZ2XXnrJvfzyy6EvfRKg782dOzfU99JLL82uHnvWr18fZHfLLbdkVw7Hvs/EAepaJGP6NvmRhnj06VGjRmV3q+e/3n7fLV7ztvu1P44dPdTNPnecu3HGadndY0fX7t1hT4UQR8uQkSPDxs4y9CuPBYPKggULwqDZiIULF4a4DLLtBsPABsfeBEMKZUqbLdx6663BwEF2nwSo5/Tp048wkJoFg472V9Funi2KrS/Cd+HJJ5/MzrpB4VLnnU3OUqoCA4BneOGFF7pFixZlVw+HZzNlyhS3bt26EI/A9/Wyyy7LYhyC7xffZ4xki0fadvVpjIrrf7TB/feWD9zsL4xzTA0Wr37b/eCJN7sjZPzu/b1u3aZtbqs/tgOWQJo1Kro++MBtWbMmhG0vvJBdFcL3jSY2/bbFsOALy4DFbKIvwmBEKIJBi/vtnNHEUFZfUdzM5pYuXdoTNm7cGOTQV59lCnKs92zLgkH1zjvvHLM+0FtgQKR9jzbT9t7wsPDs6IPTpk0LRm4RGAsYCXiU8GgQ+Ez62FDinBDHo0/TZgzpdoCnAi/FY3f8iVt45VnuX/9umvv8aaPdo+vfdbv27u+J8+W/X+9uW/IbN8sfOa+aZowKjIi1X/ua+5eJE90vvWwJa7/6Vff0eee51374wyxWOXZ64+RHDz7obvA6YM6117p/9On/97e/ze5+Mnhk2TI3bOxY98jPf55dqQ7yRiZx+MXzz2d388HIP+Pcc91M/0wA+Z7hn02rbPbPg/RPr16dXWlM7eDB8IpyGdpiWDDjYKbB4NwXZuIpV199dZjBFMFAxKBVpFRoH4YTgxsKF0Mkxa4TiuIiG+phgxyf8+Rl5REaDYbUvcgIoOxmDQRkwGAcz7ipL/nQprRO3LM25cG9WAZpXunsGZBJUbtJazKL207/S+sRyzGvnJi0TDtP60ueVVGmXxll4hLH6prKnc92DQXOZ+Rn1MvTykUeeXFM7mncoj4Rw/cOowavQtH3j3woN136YzkQoyT+Dll+8XIm+XK9TH1ageWP08eOCMaFgecC8GLgocCDcfq4EW7BX5zlj8PDuRkdVYC34sDecp6Q//FKCiNiW45y2+MV0Kte8T1z0UXBm9GITa++GhTgt/2z+eVzzwWD4rs+/R95JYYy7KvM9EYVhlDMyBEjQqiaRx5/PMjkp97AsPDKa69ld4vBVzD+lFPC5x3+WWAcHA2kJ59m2P/hh6W8Fm0xLMaPHx++yISiwaE3QVEy+MQDaQwDY9FsjUGSwQtoH/mwVECaGBQbgzMuXSAuAzjneYNxEQzM8SDLZ+pQDwy6vEGTOsaDblmwlq180uNGpi24lrke14nzIuMGRYOBYoO8yY68rK/Y0kssI+IVLSUgZ/YvNIIyeG6UQ6CcvDoaaZl2zvPjM3kgY/JMn30rlO1XlEkdMI7B4vJMYkOIdOSHHHlOHIlD3DIg1/gZ8Dkt1/ozxxj6Q9xvicvnsssP1teK4H5qLBhxnYsgDnJo196hP/AGxa6PurKzbn7X2a3khw/tCIYH3HHpRPeVc8e5v8r2Xqzb9H/hWAX8omYZ8FRsLLE3q9MrPrwY9cCIwEMxYuRIt2r5cvf6hg3uhWefda+/+KKbNWOG++cf/ziL2c1Or9R+4ct/as2aIzwaXOcacfAacJ5i99L0lq8dzRvAOXHT+Cj1V7xBhFFk5cy++GK3bOlSd8H554dzsPzy6hvy8MHqlFffGAwE5GPhpuuvz+50tz3NY6SXKfWJ46VY2dSPzynUr0zd6oHXgl9pbYi3PvoNfjDC1Kr5gaXmB7qan7Vkdw6xdOnSmh+Iw2c/cNXWrl0bPoNXRuFaZ2dndqWbjRs31vxgd1hc4uXF9YN9zQ/O2Vk3aTlgdfWzsuxKN1xPyyI/2mPQrvgcLD+OReSlA+pndSY9MopJ6+SVUjhPIY84H+Lce++94TzGG3WHPRvKy3tWQN28ws/ODrWTZxyTyohntnLlyuzsSNIyOSfftL60mevpc46pV39opl/RDvpQGpc45GFQZvqs8/o857H8jLRPEo9yU5AHdYzLQh5pXOrL9yqvfxXhDdTD2tQIe/Zpu4FrlI2sqUdev6uK+1e9VZty66raXY++Uvv1W9tr969+q3bBd56tffnudeH+r/w17n9/5Ru1Dz7sCvE453pVfLR9e23P1q0Nw7KTT64t8TKLw9o5c2rbXnzxiOuEd5Yvz82HsNjLFPkv9t//vPtxeMPnP96XPXLEiBBId+ftt/fc5/zsM88MRwvx/XsWLqyNytJasHJXrVgR4n9x6tRwJO7PliwJ8fPy++L55x92Pc5jddbe/3zmmVDfON7N110X7hG4R3lxGZzb/ThQnjcsjri+9Y03jijjm5df3nOfe9/wz4bP83zduW/37NxkSf7eqDvivoXZM2aEY5lnlYaPd+7Melkx/fZ1UzwSzKzTGQ4zPWazKcy0mMX5wfaIGRUzQtKks0uupXG9Yij0lOSR1sUPtGEmyuy/CFzE1DWeHVIm6UhfD+LRDgKzTmaZYG5n0tMGg02SvN/Mddswad6euJ3ImRm/5WMz6jxZU3dmlM3IqRHUj5m1PW+eGeU3gz3nGK9wQ96NllaKoD5l+5XJ0CvFI+JSD688s7PufmbPmn7AsyG/VmRKX+N5UG4K9SPf1PuDVzCG+iLvsh6TZkE2eE/oX9buPKgH8sDLVcZ70gpXThsflj6e2rAlbOJkmQNPxQM3nRvu//Fpo3v2XEyb928h3oWTxoTrVcFSSCPwVux5773srBz19lv8RzYTnj1zZjji6WSGHAfzHrBX4Kwzzwyz9a1vvum+5/t4utcANz0ejy3+Ph4P7jMTx1vAUstN110X0hK8Anbfvuuuw2bqm33bSO+Vsbtg6lT31z4+eXnlGNJaft54cF5pO28IhHt54Imp+XGO/Igz77bbggcmXt7BE/DYkiU9+XOOlyCPHV42LL9YYK8DXgnqiofHyohlVgRyZ2nlTh8fWZD2rDPOcFf4OgN7OrhPnWg/+SObVinz6nJbDAu+5Ciksq7P3oDBh4EuHhAZtCFvGYSBiEGpaNBiYE8HzXTwh7xr9Wg2PlAXiI0PlFM62OfB8+L5EQAFxWa3uN3kyyB+0kknhbKIY+mAOscKEXDTx8qOuCikPEzOZZY4ykLbKY8+ybJDKwqulWfRCBS+tTcP6mx1RR5myDSC54H8WU6hzfR1DJhWoHzqUVQu35dUnpSbRzvGA/oS/ZE2LliwILt6ONQdo4OAAYbM894gqQKMCDZtYkiw3ME+CjZyxnsuHvT3uI4BQpx/+svPZXcqosQ6eOerr2afyrOjQFHmgWFwox8H4oAyRxGi2FCkKGZT8H62Hdz4hp/Zu7O98THKXzdjhX0BT2UbDlH0pCUAedg9uNkrUktPWSw/UAc2Lf7UK2wos8fA6vuAN6zJD+68447wOS4Pw8SWTmZdfHE4FhkWwQDiGWWBtgPpMZpCHR9/PFxrZAQ8vWpVOKbyQFaUj0zJ/5677w6yQA73tzgWQK8ZFsyKGGgs9FVsU6INdii/ooEJ2qFY2gWK3RSJzabN4KgHg/PS7I0QZqjIKG438iIOA3RnZ2cYpJltp3mTzvoBkC412OrJs2pZkx9twkhCSaKI6u2xOJaUlQPyLquYzXji2fCMaDftb5V65fbWa6lAvXiWvEWS51EpwvpnOwwdXjfFC8HrpBgZ/F4h+ye4HsP+CgyQK6c1NhSbpczgX2YzZsq+OmkmZ0rXlC0KjNkzgZk+nD1pUjgCyhXlZ2GWNx5McRdBXzNjIE7LtW9cfnnwPBgYEwaz9hvnznVn+5k83pHv3H57dqcx1r+DMRBB/um1siCb1StW9ASMKIwAPDkYAdTxe3V0UQxtJ00sj+D98PIwRkWyAPpkq7DPohFtMSxQPMxOUT5llFlvQd1QMigYZuHMfPK8FTB58uRwv8iVjJudvPoKDJwoFuqLgVHPYGoGjBTySp+reSsMFCL9gPgYFZzHaZBVuunPIC/qjsyNIgXQrGJg5moGZasz+Cpppl9xRC5FbTYPFfdJh6KNvQytKlGrY1F66lTGi1I11MeMCp5nHny3i2RbNbzxwSukLH/Mf2zTEYHrvFrKWyG79naFuJ+buzqEql85LfOfKTuyWXLKe34GzKuneQwpSAMsR3zWK3aWJHDhGyjMK7yhi/LDHT/ZK3c+T/BxH/DfQcL3/WwarwR5NALPAHzLx7X0f+sNBQIKOg9m7RgteBooJ918WQ+WUajvT6I2sczBEgXLOVVhBhntCR6akj+hjUGHgUP7TR7fmjMnnNNmAsZGvGwTe1qapUzfaothYbPDqpRZO8H4QcEQiowKoE14Adh3kCpRBlYGNoypVql61kd9qQ8DK/Wtagc8+aYKpkgxosCRK3VAdjE2Y8zzGiBjlKgZIqZQU7mTtqyyRAHF6WkHobdp1K+QH30UTCZ5bwVhVHAvzSOm1X0g5EvZ1DGFZ4ARY3U8VphRgUFTZFQA8ah32k/wTpK2qj6AsXDbko1utzcYbphxWljmSANLHhgUN3gDgznjV74wLiyFxD+i9ej6o/thtx5KKKXfL1DCo7wiOt0bAHmMy5Yk8mCWzOwbJcySw7iJE4NLf+pFF4VZ9T1+Fs5MnXjzvNJjj4LtMeAVVfYBlIHlgm9+/es9aad+6UvhddZ/qJMeYwQDh70SpIkNH/isrxfGAnmlSw9WX/ZBhPb4OLZHhOWFqjCDCXnx6uvfeAOtDLwpgvGADEwe1O8ny5aF+7YkxBIL93gueHBaZcDAxmbD4OxYOawd12q1XpnJNIMNmjbDqweDpw1ozMZpGwM5gz9p6xkm9bDBkbx4VZe8qwBjgrpiYFQ1gGIQmJI2RYbs+JxisiVOKhvajPHJoI+BQVxkS16wcuXKcATyQPax3FG6hLRc7tFWjFrSMZvlaLIwA6eRIVk11DU1CCif+jfqV3EbkQvx2MNgzxX5EZAnacHkRXuJg1z5PqYgG8oximRC3mm55Em7Us/IsYD9EZRNualcaRP9FDhST/aZmOGPrEjL8lBV8AopSx8LvQHBz3cXwW9XYFiwVHLjzEM/8Y3BccUPng9eCzZ/Hi2DOjrc/v31fxcDA2KMV2bpL2zy080dievcmNDAo4Dh8MaGDUFxvfz662HChJeCTYms7xs3e2XIrBwFj9Exe8aMEMdAkaMMDT5zDQMAFnuDln0MtmGUZQPb34AnJE1PeZRPnbh/j4+PF8PqtNh/B3peh0VvZXlYeWl9MWziVz/5jAFi5NXBIG3eEgr1Z2Ol1eNnS5b0eFqAMqw+eFGcz99gqclkDrE8qFd8f4Ivn2Un2pJXv0YMHNzYbGjL/wrhS8sXmcHHNkr1BRi8mWEx2MR1YqDBEEoHVeKikNJBk/jM/sjPlFYah7Sm1GJQGKS1gQ+4RnygDqSxuubNBBkoqb8pnPTcIF8UAc+gzMCPcUO8NJ8Uq6+1nzojk7w6oADIs8hoIy/SMuMmPTIrMqyon+3mN+XBNT7Hcs6TJyAnWy7gmdVrJ32YsqxPpOcxRc/aIG2et4A6xGnK9CvD2hI/g7hPQywvk0Pap7jHJk+OyMPaR7y88tNnkFeubRROrxd9z4rgOabfFcP6Xx7UOS2jTL2PBrwNGAXrv/tnbvjQ4oEXA2LavH8P/zckNixg/qOb3FO/2uJ+c2+xV6As/JBRmX8cxQ9grSn541d4MaZUOEMXn0xOGD3aDTrhhOwsn7YYFgx6tuM6b2OfODbYTO5oNu0dDc0aNkJ8UjHDooxRwJ6KdhsWbLD7aNu2XC9VCm+HPHfttXVfPWWWe15mrIv+C/srho4Zk50V07bNmygz3LYyKnoPZohlZ4ftgJkr7mcZFUIcW1gHHzxsWHZWn5MmTXLTV6wIyxzDTj70VgX83tSpbvry5TIqRKDj05/OPtWnLYYFoFCq2isgmgfXL/SWYYe3gjrkubGFEO0Hw4IfryvDsFNOcectWuRmbdjgZvET3D78+Ztvuj/1BseYgk2eon+Bt2LQ0EO/xVKPthkWonfBsGMJorfAS4EblvVsIY53+P8gn//Dcr+cefrY4WETZwr/jKxsHmUIXouSM8wYjAxC0euoon+Ct6KsodqWPRZCCCH6Bh/v2FH6P50KkQcG6pDhw7OzxshjIYQQxzEnjBpV2oUtREqzRgXIYyGEEP2Afbt2uf27d2dnQjSmFaMCZFgIIUQ/gd+36PLGRZn/JSL6LwOHDAl7Khr9XkURMiyEEKKfgYGxf+9ed3DfvuyKEEdvUBgyLIQQop9y8MCBYFzU9u/v/jGtEv+5UhxHDBzo/wY6x6ukJ55Y+q2PRsiwEEIIIURl6K0QIYQQQlSGDAshhBBCVIYMCyGEEEJUhgwLIYQQQlSGDAshhBBCVIYMCyGEEEJUhHP/D37qaPuRwQOyAAAAAElFTkSuQmCC;imageBorder=default;" vertex="1" parent="WIyWlLk6GJQsqaUBKTNV-1">
          <mxGeometry x="454" y="1805" width="356" height="34" as="geometry" />
        </mxCell>
        <mxCell id="PExKw9lyQx4Q-NcElafL-89" style="edgeStyle=orthogonalEdgeStyle;rounded=0;orthogonalLoop=1;jettySize=auto;html=1;entryX=0.664;entryY=-0.047;entryDx=0;entryDy=0;entryPerimeter=0;" edge="1" parent="WIyWlLk6GJQsqaUBKTNV-1" source="PExKw9lyQx4Q-NcElafL-63" target="PExKw9lyQx4Q-NcElafL-85">
          <mxGeometry relative="1" as="geometry" />
        </mxCell>
        <mxCell id="PExKw9lyQx4Q-NcElafL-94" style="edgeStyle=orthogonalEdgeStyle;rounded=0;orthogonalLoop=1;jettySize=auto;html=1;entryX=0.338;entryY=-0.04;entryDx=0;entryDy=0;entryPerimeter=0;" edge="1" parent="WIyWlLk6GJQsqaUBKTNV-1" source="PExKw9lyQx4Q-NcElafL-60" target="PExKw9lyQx4Q-NcElafL-82">
          <mxGeometry relative="1" as="geometry" />
        </mxCell>
        <UserObject label="&lt;pre class=&quot;example microlight&quot; style=&quot;box-sizing: border-box; font-family: monospace; font-size: 12px; max-height: 400px; min-height: 6em; overflow: auto; background: rgb(51, 51, 51); border-radius: 4px; hyphens: auto; margin: 0px; padding: 0.5em; white-space: pre-wrap; word-break: break-word; overflow-wrap: break-word; color: white; font-weight: 600; font-style: normal; font-variant-ligatures: normal; font-variant-caps: normal; letter-spacing: normal; orphans: 2; text-align: start; text-indent: 0px; text-transform: none; widows: 2; word-spacing: 0px; -webkit-text-stroke-width: 0px; text-decoration-thickness: initial; text-decoration-style: initial; text-decoration-color: initial; display: block;&quot;&gt;&lt;code class=&quot;language-json&quot; style=&quot;box-sizing: border-box; font-family: Consolas, monaco, monospace; font-size: 1em; word-break: break-all; white-space: pre;&quot;&gt;&lt;span style=&quot;box-sizing: border-box;&quot;&gt;{&#xa;&lt;/span&gt;&lt;span style=&quot;box-sizing: border-box;&quot;&gt;  &lt;/span&gt;&lt;span class=&quot;hljs-attr&quot; style=&quot;box-sizing: border-box;&quot;&gt;&quot;customReportStatusInfoList&quot;&lt;/span&gt;&lt;span style=&quot;box-sizing: border-box;&quot;&gt;: [&#xa;&lt;/span&gt;    {&#xa;&lt;span style=&quot;box-sizing: border-box;&quot;&gt;      &lt;/span&gt;&lt;span class=&quot;hljs-attr&quot; style=&quot;box-sizing: border-box;&quot;&gt;&quot;attuid&quot;&lt;/span&gt;&lt;span style=&quot;box-sizing: border-box;&quot;&gt;: &lt;/span&gt;&lt;span style=&quot;box-sizing: border-box; color: rgb(162, 252, 162);&quot;&gt;&quot;ab1984&quot;&lt;/span&gt;&lt;span style=&quot;box-sizing: border-box;&quot;&gt;,&#xa;&lt;/span&gt;&lt;span style=&quot;box-sizing: border-box;&quot;&gt;      &lt;/span&gt;&lt;span class=&quot;hljs-attr&quot; style=&quot;box-sizing: border-box;&quot;&gt;&quot;cfasId&quot;&lt;/span&gt;&lt;span style=&quot;box-sizing: border-box;&quot;&gt;: &lt;/span&gt;&lt;span style=&quot;box-sizing: border-box; color: rgb(162, 252, 162);&quot;&gt;&quot;123456789&quot;&lt;/span&gt;&lt;span style=&quot;box-sizing: border-box;&quot;&gt;,&#xa;&lt;/span&gt;&lt;span style=&quot;box-sizing: border-box;&quot;&gt;      &lt;/span&gt;&lt;span class=&quot;hljs-attr&quot; style=&quot;box-sizing: border-box;&quot;&gt;&quot;reportName&quot;&lt;/span&gt;&lt;span style=&quot;box-sizing: border-box;&quot;&gt;: &lt;/span&gt;&lt;span style=&quot;box-sizing: border-box; color: rgb(162, 252, 162);&quot;&gt;&quot;Activation_Report&quot;&lt;/span&gt;&lt;span style=&quot;box-sizing: border-box;&quot;&gt;,&#xa;&lt;/span&gt;&lt;span style=&quot;box-sizing: border-box;&quot;&gt;      &lt;/span&gt;&lt;span class=&quot;hljs-attr&quot; style=&quot;box-sizing: border-box;&quot;&gt;&quot;requestedDateTime&quot;&lt;/span&gt;&lt;span style=&quot;box-sizing: border-box;&quot;&gt;: &lt;/span&gt;&lt;span style=&quot;box-sizing: border-box; color: rgb(162, 252, 162);&quot;&gt;&quot;20240622101010&quot;&lt;/span&gt;&lt;span style=&quot;box-sizing: border-box;&quot;&gt;,&#xa;&lt;/span&gt;&lt;span style=&quot;box-sizing: border-box;&quot;&gt;      &lt;/span&gt;&lt;span class=&quot;hljs-attr&quot; style=&quot;box-sizing: border-box;&quot;&gt;&quot;genrationDateTime&quot;&lt;/span&gt;&lt;span style=&quot;box-sizing: border-box;&quot;&gt;: &lt;/span&gt;&lt;span style=&quot;box-sizing: border-box; color: rgb(162, 252, 162);&quot;&gt;&quot;20240622101010&quot;&lt;/span&gt;&lt;span style=&quot;box-sizing: border-box;&quot;&gt;,&#xa;&lt;/span&gt;&lt;span style=&quot;box-sizing: border-box;&quot;&gt;      &lt;/span&gt;&lt;span class=&quot;hljs-attr&quot; style=&quot;box-sizing: border-box;&quot;&gt;&quot;downloadUrl&quot;&lt;/span&gt;&lt;span style=&quot;box-sizing: border-box;&quot;&gt;: &lt;/span&gt;&lt;span style=&quot;box-sizing: border-box; color: rgb(162, 252, 162);&quot;&gt;&quot;/download/excel/Activation_Report.xlsx&quot;&lt;/span&gt;&lt;span style=&quot;box-sizing: border-box;&quot;&gt;,&#xa;&lt;/span&gt;&lt;span style=&quot;box-sizing: border-box;&quot;&gt;      &lt;/span&gt;&lt;span class=&quot;hljs-attr&quot; style=&quot;box-sizing: border-box;&quot;&gt;&quot;reportStatus&quot;&lt;/span&gt;&lt;span style=&quot;box-sizing: border-box;&quot;&gt;: &lt;/span&gt;&lt;span style=&quot;box-sizing: border-box; color: rgb(162, 252, 162);&quot;&gt;&quot;SUCCESS&quot;&lt;/span&gt;&lt;span style=&quot;box-sizing: border-box;&quot;&gt;,&#xa;&lt;/span&gt;&lt;span style=&quot;box-sizing: border-box;&quot;&gt;      &lt;/span&gt;&lt;span class=&quot;hljs-attr&quot; style=&quot;box-sizing: border-box;&quot;&gt;&quot;fileName&quot;&lt;/span&gt;&lt;span style=&quot;box-sizing: border-box;&quot;&gt;: &lt;/span&gt;&lt;span style=&quot;box-sizing: border-box; color: rgb(162, 252, 162);&quot;&gt;&quot;Activation_Report_20240622101010.xlsx&quot;&lt;/span&gt;&lt;span style=&quot;box-sizing: border-box;&quot;&gt;&#xa;&lt;/span&gt;    }&#xa;  ]&#xa;}&lt;/code&gt;&lt;/pre&gt;" link="&lt;pre class=&quot;example microlight&quot; style=&quot;box-sizing: border-box; font-family: monospace; font-size: 12px; max-height: 400px; min-height: 6em; overflow: auto; background: rgb(51, 51, 51); border-radius: 4px; hyphens: auto; margin: 0px; padding: 0.5em; white-space: pre-wrap; word-break: break-word; overflow-wrap: break-word; color: white; font-weight: 600; font-style: normal; font-variant-ligatures: normal; font-variant-caps: normal; letter-spacing: normal; orphans: 2; text-align: start; text-indent: 0px; text-transform: none; widows: 2; word-spacing: 0px; -webkit-text-stroke-width: 0px; text-decoration-thickness: initial; text-decoration-style: initial; text-decoration-color: initial; display: block;&quot;&gt;&lt;code class=&quot;language-json&quot; style=&quot;box-sizing: border-box; font-family: Consolas, monaco, monospace; font-size: 1em; word-break: break-all; white-space: pre;&quot;&gt;&lt;span style=&quot;box-sizing: border-box;&quot;&gt;{&#xa;&lt;/span&gt;&lt;span style=&quot;box-sizing: border-box;&quot;&gt;  &lt;/span&gt;&lt;span class=&quot;hljs-attr&quot; style=&quot;box-sizing: border-box;&quot;&gt;&quot;customReportStatusInfoList&quot;&lt;/span&gt;&lt;span style=&quot;box-sizing: border-box;&quot;&gt;: [&#xa;&lt;/span&gt;    {&#xa;&lt;span style=&quot;box-sizing: border-box;&quot;&gt;      &lt;/span&gt;&lt;span class=&quot;hljs-attr&quot; style=&quot;box-sizing: border-box;&quot;&gt;&quot;attuid&quot;&lt;/span&gt;&lt;span style=&quot;box-sizing: border-box;&quot;&gt;: &lt;/span&gt;&lt;span style=&quot;box-sizing: border-box; color: rgb(162, 252, 162);&quot;&gt;&quot;ab1984&quot;&lt;/span&gt;&lt;span style=&quot;box-sizing: border-box;&quot;&gt;,&#xa;&lt;/span&gt;&lt;span style=&quot;box-sizing: border-box;&quot;&gt;      &lt;/span&gt;&lt;span class=&quot;hljs-attr&quot; style=&quot;box-sizing: border-box;&quot;&gt;&quot;cfasId&quot;&lt;/span&gt;&lt;span style=&quot;box-sizing: border-box;&quot;&gt;: &lt;/span&gt;&lt;span style=&quot;box-sizing: border-box; color: rgb(162, 252, 162);&quot;&gt;&quot;123456789&quot;&lt;/span&gt;&lt;span style=&quot;box-sizing: border-box;&quot;&gt;,&#xa;&lt;/span&gt;&lt;span style=&quot;box-sizing: border-box;&quot;&gt;      &lt;/span&gt;&lt;span class=&quot;hljs-attr&quot; style=&quot;box-sizing: border-box;&quot;&gt;&quot;reportName&quot;&lt;/span&gt;&lt;span style=&quot;box-sizing: border-box;&quot;&gt;: &lt;/span&gt;&lt;span style=&quot;box-sizing: border-box; color: rgb(162, 252, 162);&quot;&gt;&quot;Activation_Report&quot;&lt;/span&gt;&lt;span style=&quot;box-sizing: border-box;&quot;&gt;,&#xa;&lt;/span&gt;&lt;span style=&quot;box-sizing: border-box;&quot;&gt;      &lt;/span&gt;&lt;span class=&quot;hljs-attr&quot; style=&quot;box-sizing: border-box;&quot;&gt;&quot;requestedDateTime&quot;&lt;/span&gt;&lt;span style=&quot;box-sizing: border-box;&quot;&gt;: &lt;/span&gt;&lt;span style=&quot;box-sizing: border-box; color: rgb(162, 252, 162);&quot;&gt;&quot;20240622101010&quot;&lt;/span&gt;&lt;span style=&quot;box-sizing: border-box;&quot;&gt;,&#xa;&lt;/span&gt;&lt;span style=&quot;box-sizing: border-box;&quot;&gt;      &lt;/span&gt;&lt;span class=&quot;hljs-attr&quot; style=&quot;box-sizing: border-box;&quot;&gt;&quot;genrationDateTime&quot;&lt;/span&gt;&lt;span style=&quot;box-sizing: border-box;&quot;&gt;: &lt;/span&gt;&lt;span style=&quot;box-sizing: border-box; color: rgb(162, 252, 162);&quot;&gt;&quot;20240622101010&quot;&lt;/span&gt;&lt;span style=&quot;box-sizing: border-box;&quot;&gt;,&#xa;&lt;/span&gt;&lt;span style=&quot;box-sizing: border-box;&quot;&gt;      &lt;/span&gt;&lt;span class=&quot;hljs-attr&quot; style=&quot;box-sizing: border-box;&quot;&gt;&quot;downloadUrl&quot;&lt;/span&gt;&lt;span style=&quot;box-sizing: border-box;&quot;&gt;: &lt;/span&gt;&lt;span style=&quot;box-sizing: border-box; color: rgb(162, 252, 162);&quot;&gt;&quot;/download/excel/Activation_Report.xlsx&quot;&lt;/span&gt;&lt;span style=&quot;box-sizing: border-box;&quot;&gt;,&#xa;&lt;/span&gt;&lt;span style=&quot;box-sizing: border-box;&quot;&gt;      &lt;/span&gt;&lt;span class=&quot;hljs-attr&quot; style=&quot;box-sizing: border-box;&quot;&gt;&quot;reportStatus&quot;&lt;/span&gt;&lt;span style=&quot;box-sizing: border-box;&quot;&gt;: &lt;/span&gt;&lt;span style=&quot;box-sizing: border-box; color: rgb(162, 252, 162);&quot;&gt;&quot;SUCCESS&quot;&lt;/span&gt;&lt;span style=&quot;box-sizing: border-box;&quot;&gt;,&#xa;&lt;/span&gt;&lt;span style=&quot;box-sizing: border-box;&quot;&gt;      &lt;/span&gt;&lt;span class=&quot;hljs-attr&quot; style=&quot;box-sizing: border-box;&quot;&gt;&quot;fileName&quot;&lt;/span&gt;&lt;span style=&quot;box-sizing: border-box;&quot;&gt;: &lt;/span&gt;&lt;span style=&quot;box-sizing: border-box; color: rgb(162, 252, 162);&quot;&gt;&quot;Activation_Report_20240622101010.xlsx&quot;&lt;/span&gt;&lt;span style=&quot;box-sizing: border-box;&quot;&gt;&#xa;&lt;/span&gt;    }&#xa;  ]&#xa;}&lt;/code&gt;&lt;/pre&gt;" id="PExKw9lyQx4Q-NcElafL-96">
          <mxCell style="text;whiteSpace=wrap;html=1;" vertex="1" parent="WIyWlLk6GJQsqaUBKTNV-1">
            <mxGeometry x="435" y="1308" width="385" height="212" as="geometry" />
          </mxCell>
        </UserObject>
        <mxCell id="PExKw9lyQx4Q-NcElafL-97" value="&lt;pre class=&quot;example microlight&quot; style=&quot;box-sizing: border-box; font-family: monospace; font-size: 12px; max-height: 400px; min-height: 6em; overflow: auto; background: rgb(51, 51, 51); border-radius: 4px; hyphens: auto; margin: 0px; padding: 0.5em; white-space: pre-wrap; word-break: break-word; overflow-wrap: break-word; color: white; font-weight: 600; font-style: normal; font-variant-ligatures: normal; font-variant-caps: normal; letter-spacing: normal; orphans: 2; text-align: start; text-indent: 0px; text-transform: none; widows: 2; word-spacing: 0px; -webkit-text-stroke-width: 0px; text-decoration-thickness: initial; text-decoration-style: initial; text-decoration-color: initial; display: block;&quot;&gt;&lt;code class=&quot;language-json&quot; style=&quot;box-sizing: border-box; font-family: Consolas, monaco, monospace; font-size: 1em; word-break: break-all; white-space: pre;&quot;&gt;&lt;span style=&quot;box-sizing: border-box;&quot;&gt;  &lt;/span&gt;&lt;span class=&quot;hljs-attr&quot; style=&quot;box-sizing: border-box;&quot;&gt;&quot;totalActualNumerOfRecords&quot;&lt;/span&gt;&lt;span style=&quot;box-sizing: border-box;&quot;&gt;: &lt;/span&gt;&lt;span style=&quot;box-sizing: border-box; color: rgb(162, 252, 162);&quot;&gt;&quot;10000&quot;&lt;/span&gt;&lt;span style=&quot;box-sizing: border-box;&quot;&gt;,&#xa;&lt;/span&gt;&lt;span style=&quot;box-sizing: border-box;&quot;&gt;  &lt;/span&gt;&lt;span class=&quot;hljs-attr&quot; style=&quot;box-sizing: border-box;&quot;&gt;&quot;totalNumerOfRecordsReturned&quot;&lt;/span&gt;&lt;span style=&quot;box-sizing: border-box;&quot;&gt;: &lt;/span&gt;&lt;span style=&quot;box-sizing: border-box; color: rgb(162, 252, 162);&quot;&gt;&quot;10000&quot;&lt;/span&gt;&lt;span style=&quot;box-sizing: border-box;&quot;&gt;,&#xa;&lt;/span&gt;&lt;span style=&quot;box-sizing: border-box;&quot;&gt;  &lt;/span&gt;&lt;span class=&quot;hljs-attr&quot; style=&quot;box-sizing: border-box;&quot;&gt;&quot;minNumerOfRecords&quot;&lt;/span&gt;&lt;span style=&quot;box-sizing: border-box;&quot;&gt;: &lt;/span&gt;&lt;span style=&quot;box-sizing: border-box; color: rgb(162, 252, 162);&quot;&gt;&quot;3000&quot;&lt;/span&gt;&lt;span style=&quot;box-sizing: border-box;&quot;&gt;,&#xa;&lt;/span&gt;&lt;span style=&quot;box-sizing: border-box;&quot;&gt;  &lt;/span&gt;&lt;span class=&quot;hljs-attr&quot; style=&quot;box-sizing: border-box;&quot;&gt;&quot;maxNumerOfRecords&quot;&lt;/span&gt;&lt;span style=&quot;box-sizing: border-box;&quot;&gt;: &lt;/span&gt;&lt;span style=&quot;box-sizing: border-box; color: rgb(162, 252, 162);&quot;&gt;&quot;7000&quot;&lt;/span&gt;&lt;span style=&quot;box-sizing: border-box;&quot;&gt;,&#xa;&lt;/span&gt;&lt;span style=&quot;box-sizing: border-box;&quot;&gt;  &lt;/span&gt;&lt;span class=&quot;hljs-attr&quot; style=&quot;box-sizing: border-box;&quot;&gt;&quot;reportFileName&quot;&lt;/span&gt;&lt;span style=&quot;box-sizing: border-box;&quot;&gt;: &lt;/span&gt;&lt;span style=&quot;box-sizing: border-box; color: rgb(162, 252, 162);&quot;&gt;&quot;Weekly Total Transactions&quot;&lt;/span&gt;&lt;span style=&quot;box-sizing: border-box;&quot;&gt;,&lt;/span&gt;&lt;/code&gt;&lt;/pre&gt;" style="text;whiteSpace=wrap;html=1;" vertex="1" parent="WIyWlLk6GJQsqaUBKTNV-1">
          <mxGeometry x="460" y="605" width="360" height="110" as="geometry" />
        </mxCell>
      </root>
    </mxGraphModel>
  </diagram>
</mxfile>
